<?xml version="1.0" encoding="utf-8"?>
<!-- Generator: Adobe Illustrator 16.0.3, SVG Export Plug-In . SVG Version: 6.00 Build 0)  -->
<!DOCTYPE svg PUBLIC "-//W3C//DTD SVG 1.1//EN" "http://www.w3.org/Graphics/SVG/1.1/DTD/svg11.dtd">
<svg version="1.1" id="Ebene_1" xmlns="http://www.w3.org/2000/svg" xmlns:xlink="http://www.w3.org/1999/xlink" x="0px" y="0px"
	 width="63.566px" height="35.645px" viewBox="0 0 63.566 35.645" enable-background="new 0 0 63.566 35.645" xml:space="preserve">
<g>
	<polygon fill="#C21F22" stroke="#000000" stroke-width="0.1885" stroke-miterlimit="22.9256" points="63.518,10.116 63.518,16.73 
		0,16.73 0,10.116 	"/>
	<polygon fill="#C21F22" stroke="#000000" stroke-width="0.1885" stroke-miterlimit="22.9256" points="63.566,19.03 63.566,25.644 
		0.05,25.644 0.05,19.03 	"/>
	<polygon fill="#FFED00" stroke="#000000" stroke-width="0.1885" stroke-miterlimit="22.9256" points="63.566,17.88 63.566,19.03 
		0.05,19.03 0.05,17.88 	"/>
	<polygon stroke="#000000" stroke-width="0.1885" stroke-miterlimit="22.9256" points="63.566,16.73 63.566,17.88 0.05,17.88 
		0.05,16.73 	"/>
	<path fill="#FFEC00" d="M31.935,5.307v24.937c6.863,0,12.463-5.61,12.463-12.463C44.398,10.907,38.798,5.307,31.935,5.307
		L31.935,5.307z"/>
	<path fill="#131108" d="M19.46,17.781c0,6.853,5.6,12.463,12.474,12.463V5.307C25.06,5.307,19.46,10.907,19.46,17.781L19.46,17.781
		z"/>
	<path fill="#FFFFFF" d="M31.935,0.116c-9.706,0-17.77,8.064-17.77,17.77c0,9.694,8.063,17.759,17.77,17.759
		c9.693,0,17.758-8.063,17.758-17.759C49.693,8.18,41.628,0.116,31.935,0.116L31.935,0.116z M31.935,30.244
		c-6.875,0-12.474-5.61-12.474-12.463c0-6.875,5.6-12.474,12.474-12.474c6.863,0,12.463,5.6,12.463,12.474
		C44.398,24.634,38.798,30.244,31.935,30.244L31.935,30.244z"/>
	<path fill="#EF7D00" d="M25.018,1.421c-2.125,0.909-4.039,2.207-5.689,3.858c-1.651,1.651-2.949,3.565-3.858,5.688
		c-0.943,2.203-1.421,4.53-1.421,6.916s0.478,4.709,1.421,6.911c0.91,2.123,2.208,4.036,3.858,5.688
		c1.65,1.65,3.565,2.947,5.689,3.855c2.203,0.942,4.53,1.421,6.917,1.421c2.383,0,4.709-0.479,6.91-1.421
		c2.123-0.908,4.036-2.207,5.686-3.855c1.65-1.65,2.949-3.563,3.857-5.688c0.942-2.201,1.422-4.526,1.422-6.911
		c0-2.386-0.479-4.712-1.422-6.915c-0.908-2.124-2.207-4.039-3.857-5.689s-3.563-2.949-5.686-3.858C36.644,0.479,34.317,0,31.935,0
		C29.548,0,27.221,0.479,25.018,1.421L25.018,1.421z M25.109,34.126c-2.097-0.896-3.987-2.179-5.617-3.808
		c-1.63-1.63-2.911-3.52-3.809-5.614c-0.93-2.173-1.402-4.467-1.402-6.818c0-2.354,0.472-4.65,1.402-6.825
		c0.897-2.098,2.179-3.987,3.809-5.617c1.629-1.63,3.52-2.911,5.617-3.81c2.174-0.93,4.47-1.401,6.826-1.401
		c2.352,0,4.646,0.472,6.818,1.401c2.096,0.897,3.985,2.18,5.614,3.81s2.91,3.52,3.809,5.617c0.93,2.174,1.402,4.471,1.402,6.825
		c0,2.353-0.473,4.646-1.402,6.818c-0.898,2.096-2.18,3.984-3.809,5.614c-1.629,1.629-3.518,2.91-5.614,3.808
		c-2.172,0.931-4.467,1.401-6.818,1.401C29.58,35.527,27.283,35.056,25.109,34.126L25.109,34.126z"/>
	<path fill="#EF7D00" d="M19.344,17.781c0,1.69,0.333,3.333,0.992,4.884c0.635,1.497,1.544,2.842,2.701,3.999
		c1.158,1.158,2.504,2.067,4.002,2.703c1.553,0.659,3.199,0.992,4.895,0.992c1.691,0,3.338-0.333,4.889-0.992
		c1.496-0.636,2.842-1.545,3.998-2.703c1.157-1.157,2.068-2.503,2.703-3.999c0.656-1.551,0.99-3.192,0.99-4.884
		c0-1.696-0.334-3.343-0.99-4.895c-0.635-1.499-1.545-2.846-2.703-4.003c-1.156-1.156-2.502-2.065-3.998-2.7
		c-1.551-0.658-3.195-0.992-4.889-0.992C24.992,5.191,19.344,10.839,19.344,17.781L19.344,17.781z M27.13,29.153
		c-1.471-0.624-2.792-1.517-3.929-2.653c-1.136-1.136-2.028-2.457-2.652-3.926c-0.646-1.521-0.973-3.134-0.973-4.793
		c0-6.814,5.544-12.358,12.358-12.358c1.662,0,3.275,0.328,4.797,0.974c1.469,0.624,2.791,1.516,3.926,2.651
		c1.135,1.137,2.028,2.458,2.651,3.93c0.646,1.522,0.973,3.14,0.973,4.804c0,1.658-0.326,3.271-0.973,4.793
		c-0.623,1.469-1.517,2.79-2.651,3.926c-1.135,1.138-2.457,2.029-3.926,2.653c-1.521,0.646-3.137,0.975-4.797,0.975
		C30.27,30.128,28.654,29.8,27.13,29.153L27.13,29.153z"/>
	<path fill="#EF7D00" d="M17.496,22.294c-0.01-0.146-0.052-0.293-0.125-0.448c-0.073-0.157-0.115-0.251-0.115-0.293
		c0-0.072,0.032-0.137,0.084-0.188c0.042-0.042,0.115-0.063,0.198-0.063c0.073,0,0.146,0.021,0.199,0.063
		c0.042,0.052,0.073,0.115,0.073,0.188c0,0.042-0.042,0.136-0.115,0.293c-0.073,0.155-0.115,0.303-0.125,0.448
		c0.125-0.072,0.241-0.188,0.355-0.354c0.104-0.167,0.219-0.251,0.313-0.251c0.073,0,0.125,0.032,0.177,0.095
		c0.053,0.052,0.083,0.125,0.083,0.198c0,0.084-0.021,0.146-0.073,0.188c-0.052,0.031-0.146,0.063-0.293,0.073
		c-0.125,0.01-0.229,0.021-0.303,0.041c-0.073,0.021-0.146,0.042-0.219,0.084c0.073,0.031,0.146,0.063,0.219,0.083
		c0.084,0.021,0.188,0.031,0.313,0.042c0.136,0.011,0.23,0.031,0.282,0.073c0.052,0.042,0.073,0.104,0.073,0.188
		s-0.031,0.147-0.083,0.209c-0.052,0.054-0.115,0.084-0.188,0.084c-0.094,0-0.198-0.084-0.303-0.251
		c-0.115-0.167-0.23-0.292-0.345-0.354c0,0.136,0.042,0.282,0.115,0.438c0.083,0.157,0.115,0.262,0.115,0.304
		c0,0.072-0.021,0.136-0.073,0.178c-0.052,0.053-0.125,0.073-0.199,0.073c-0.083,0-0.146-0.021-0.198-0.073
		c-0.052-0.042-0.073-0.104-0.073-0.178c0-0.042,0.042-0.146,0.115-0.304c0.073-0.155,0.115-0.303,0.125-0.438
		c-0.125,0.073-0.251,0.198-0.355,0.354c-0.115,0.167-0.22,0.251-0.324,0.251c-0.073,0-0.136-0.03-0.177-0.094
		c-0.052-0.063-0.084-0.125-0.084-0.199c0-0.071,0.032-0.136,0.073-0.177c0.052-0.042,0.125-0.073,0.209-0.073
		c0.021,0,0.042-0.011,0.073-0.011c0.219-0.011,0.397-0.052,0.533-0.125c-0.146-0.073-0.334-0.115-0.564-0.125
		c-0.021,0-0.053,0-0.063,0c-0.073-0.011-0.136-0.032-0.188-0.084c-0.052-0.042-0.073-0.104-0.073-0.167
		c0-0.084,0.032-0.157,0.084-0.209c0.052-0.063,0.115-0.095,0.188-0.095c0.094,0,0.199,0.084,0.303,0.24
		C17.256,22.096,17.371,22.221,17.496,22.294L17.496,22.294z"/>
	<path fill="#EF7D00" d="M45.871,22.378c-0.01-0.146-0.053-0.293-0.125-0.449c-0.074-0.146-0.115-0.25-0.115-0.292
		c0-0.073,0.031-0.137,0.072-0.188c0.053-0.041,0.127-0.063,0.199-0.063c0.084,0,0.156,0.021,0.199,0.063
		c0.051,0.053,0.071,0.115,0.071,0.188c0,0.042-0.03,0.136-0.104,0.292c-0.073,0.156-0.114,0.304-0.125,0.449
		c0.113-0.073,0.238-0.188,0.354-0.354c0.104-0.167,0.222-0.251,0.313-0.251c0.072,0,0.125,0.031,0.179,0.094
		c0.051,0.063,0.084,0.126,0.084,0.199c0,0.083-0.033,0.146-0.074,0.188c-0.053,0.031-0.146,0.063-0.293,0.073
		c-0.125,0.011-0.229,0.021-0.303,0.042c-0.082,0.021-0.146,0.042-0.22,0.083c0.072,0.031,0.146,0.063,0.22,0.084
		c0.084,0.021,0.178,0.031,0.313,0.042c0.135,0.01,0.229,0.031,0.281,0.073c0.041,0.041,0.074,0.104,0.074,0.188
		s-0.033,0.146-0.084,0.209c-0.053,0.053-0.115,0.084-0.189,0.084c-0.094,0-0.197-0.084-0.303-0.251
		c-0.115-0.167-0.229-0.281-0.344-0.354c0,0.136,0.041,0.282,0.115,0.449c0.072,0.156,0.113,0.251,0.113,0.293
		c0,0.072-0.031,0.136-0.072,0.178c-0.053,0.052-0.125,0.073-0.209,0.073c-0.072,0-0.146-0.021-0.188-0.073
		c-0.053-0.042-0.073-0.104-0.073-0.178c0-0.042,0.03-0.146,0.114-0.305c0.074-0.155,0.115-0.303,0.125-0.438
		c-0.135,0.073-0.25,0.199-0.354,0.354c-0.114,0.167-0.221,0.251-0.336,0.251c-0.063,0-0.125-0.031-0.178-0.094
		c-0.051-0.063-0.072-0.126-0.072-0.199c0-0.072,0.021-0.125,0.072-0.178c0.053-0.042,0.127-0.073,0.209-0.073
		c0.012,0,0.043,0,0.064-0.01c0.229-0.011,0.406-0.053,0.543-0.126c-0.146-0.072-0.336-0.114-0.564-0.125c-0.031,0-0.053,0-0.063,0
		c-0.084-0.011-0.146-0.031-0.189-0.083c-0.051-0.042-0.072-0.104-0.072-0.168c0-0.083,0.031-0.156,0.084-0.209
		c0.054-0.063,0.115-0.094,0.188-0.094c0.095,0,0.188,0.084,0.304,0.251C45.63,22.179,45.746,22.304,45.871,22.378L45.871,22.378z"
		/>
	<path fill="#EF7D00" d="M43.007,30.484v-0.491c0.021,0.011,0.054,0,0.074-0.021c0.021-0.012,0.041-0.054,0.063-0.126
		c0.041-0.114,0.063-0.229,0.063-0.365l0.156,0.01c-0.021,0.262-0.031,0.419-0.041,0.481c-0.031,0.125-0.072,0.229-0.125,0.322
		c-0.043,0.054-0.084,0.104-0.137,0.146C43.039,30.463,43.02,30.474,43.007,30.484L43.007,30.484z M43.007,28.948
		c0.313,0.293,0.533,0.48,0.67,0.554c0.063,0.042,0.125,0.054,0.197,0.054c0.063,0,0.114-0.021,0.146-0.063
		c0.084-0.094,0.138-0.25,0.146-0.459c0-0.209-0.02-0.407-0.072-0.596l-0.146,0.011c0.03,0.188,0.04,0.365,0.021,0.522
		c0,0.083-0.021,0.136-0.043,0.167c-0.031,0.03-0.072,0.03-0.125,0c-0.021-0.012-0.262-0.221-0.699-0.616l-0.096-0.096
		L43.007,28.948L43.007,28.948z M43.007,27.58v-0.313l0.104-0.125l-0.104-0.096v-0.521l0.354,0.324l0.367-0.418l0.146,0.125
		l-0.354,0.429l0.711,0.638c0.209,0.188,0.365,0.313,0.471,0.365c0.041,0.031,0.084,0.042,0.125,0.031
		c0.031,0,0.063-0.021,0.084-0.042c0.031-0.041,0.053-0.125,0.063-0.25c0.021-0.157,0.01-0.313,0-0.48l0.178-0.011
		c0.031,0.449,0.041,0.741,0.011,0.877c-0.021,0.137-0.052,0.23-0.104,0.293c-0.043,0.052-0.104,0.073-0.178,0.084
		c-0.074,0-0.156-0.021-0.262-0.084c-0.125-0.063-0.291-0.188-0.502-0.376l-0.846-0.752L43.007,27.58L43.007,27.58z M43.007,26.524
		v0.521l-0.364-0.322l0.125-0.407L43.007,26.524L43.007,26.524z M43.007,27.267v0.313l-0.021,0.021l-0.155-0.137L43.007,27.267
		L43.007,27.267z M43.007,28.426l-0.771-0.71c-0.314-0.293-0.524-0.49-0.627-0.596c-0.105-0.104-0.158-0.188-0.158-0.251
		c0-0.041,0.021-0.094,0.074-0.146c0.041-0.054,0.104-0.104,0.178-0.168c0.084-0.063,0.146-0.114,0.178-0.146
		c0.063-0.063,0.084-0.126,0.084-0.178c-0.012-0.042-0.043-0.084-0.096-0.115c-0.041-0.031-0.104-0.042-0.166-0.031
		c-0.063,0.021-0.125,0.054-0.178,0.115c-0.094,0.104-0.168,0.219-0.209,0.345v0.626c0.021,0.074,0.063,0.146,0.104,0.221
		c0.084,0.136,0.293,0.354,0.627,0.657l0.898,0.848c0.021,0.021,0.043,0.041,0.063,0.052L43.007,28.426L43.007,28.426z
		 M43.007,29.993v0.491c-0.021,0-0.041,0.01-0.063,0.01c-0.03,0-0.063-0.01-0.104-0.041c-0.021-0.021-0.043-0.042-0.074-0.084
		l-0.209-0.303c0.021,0.219,0.012,0.438-0.063,0.658c-0.041,0.136-0.104,0.239-0.188,0.313s-0.188,0.094-0.293,0.083
		c-0.135-0.01-0.272-0.073-0.407-0.178c-0.115-0.083-0.209-0.198-0.293-0.334V29.95c0,0.021,0.01,0.031,0.021,0.053
		c0.104,0.22,0.25,0.396,0.438,0.555c0.105,0.071,0.19,0.113,0.272,0.125c0.074,0.011,0.137-0.012,0.199-0.054
		c0.094-0.083,0.146-0.208,0.155-0.386c0.013-0.178-0.063-0.366-0.218-0.575l-0.502-0.679c-0.094,0.042-0.166,0.094-0.219,0.136
		c-0.063,0.042-0.115,0.095-0.146,0.146v-0.388c0.053-0.053,0.115-0.104,0.188-0.167c0.043-0.03,0.094-0.072,0.146-0.104
		l-0.031-0.115l0.115-0.136l0.387,0.574c0.155,0.22,0.354,0.471,0.584,0.753c0.127,0.146,0.209,0.24,0.252,0.271
		C42.977,29.973,42.988,29.982,43.007,29.993L43.007,29.993z M41.315,31.748c0.031-0.042,0.072-0.094,0.104-0.156
		c0.084-0.178,0.146-0.376,0.178-0.596l-0.135-0.042c-0.031,0.115-0.063,0.198-0.084,0.282c-0.031,0.063-0.053,0.125-0.063,0.167
		V31.748L41.315,31.748z M41.315,26.546v0.626c-0.053-0.125-0.074-0.261-0.053-0.406C41.274,26.691,41.284,26.619,41.315,26.546
		L41.315,26.546z M41.315,28.886v0.387c-0.053,0.063-0.084,0.136-0.094,0.209c-0.021,0.125,0.01,0.282,0.094,0.47v0.658
		c-0.041-0.052-0.074-0.115-0.105-0.167c-0.104-0.22-0.166-0.449-0.176-0.679c-0.021-0.23,0.01-0.439,0.094-0.617
		C41.159,29.063,41.222,28.979,41.315,28.886L41.315,28.886z M41.315,31.403c-0.021,0.042-0.041,0.063-0.063,0.073
		c-0.022,0.01-0.043,0.011-0.063,0.011c-0.012-0.011-0.031-0.021-0.053-0.042c-0.053-0.052-0.094-0.125-0.146-0.198
		c-0.041-0.084-0.135-0.293-0.293-0.638c-0.104-0.261-0.188-0.428-0.24-0.522c-0.02-0.052-0.063-0.094-0.104-0.146
		c-0.043-0.052-0.105-0.083-0.168-0.094c-0.072-0.011-0.135,0-0.197,0.042c-0.084,0.052-0.168,0.146-0.24,0.293
		c-0.127,0.25-0.221,0.512-0.262,0.793l-0.574-1.056v0.847l0.584,1.087c0.094,0.178,0.209,0.396,0.346,0.68l0.375-0.22l-0.438-0.806
		c-0.094-0.178-0.146-0.322-0.146-0.438c0.01-0.188,0.053-0.366,0.125-0.522c0.053-0.114,0.115-0.197,0.188-0.229
		c0.063-0.042,0.105-0.032,0.146,0.01c0.031,0.031,0.084,0.146,0.178,0.345c0.178,0.408,0.303,0.669,0.365,0.784
		c0.074,0.114,0.125,0.198,0.178,0.25c0.074,0.084,0.137,0.126,0.209,0.146c0.074,0.021,0.137,0.011,0.199-0.031
		c0.031-0.011,0.063-0.042,0.094-0.073V31.403L41.315,31.403z M38.913,33.022V32.73h0.01c0.053-0.021,0.115-0.094,0.178-0.22
		c0.041-0.095,0.084-0.188,0.137-0.262l0.125,0.042c-0.074,0.22-0.178,0.418-0.303,0.574C39.007,32.939,38.964,32.991,38.913,33.022
		L38.913,33.022z M38.913,29.168v-0.376c0.041-0.03,0.082-0.063,0.125-0.084c0.072-0.042,0.135-0.063,0.209-0.052
		c0.063,0,0.115,0.021,0.156,0.063c0.031,0.042,0.043,0.084,0.031,0.136c-0.02,0.053-0.063,0.094-0.135,0.136
		c-0.043,0.021-0.096,0.053-0.168,0.073C39.048,29.105,38.964,29.137,38.913,29.168L38.913,29.168z M38.913,28.792v0.376
		c-0.043,0.021-0.074,0.031-0.094,0.053c-0.084,0.042-0.127,0.104-0.127,0.178s0.053,0.22,0.168,0.429l0.053,0.094v0.847
		l-0.221-0.396c-0.145-0.271-0.219-0.501-0.229-0.7c-0.012-0.188,0.041-0.364,0.156-0.543C38.692,28.99,38.798,28.875,38.913,28.792
		L38.913,28.792z M38.913,32.73v0.292c-0.031,0.021-0.053,0.042-0.084,0.053c-0.072,0.021-0.137,0.031-0.199,0
		c-0.072-0.021-0.125-0.084-0.188-0.167c-0.084-0.136-0.188-0.502-0.324-1.098c-0.053-0.209-0.084-0.323-0.104-0.354
		c-0.031-0.053-0.084-0.053-0.146-0.032c-0.072,0.032-0.156,0.105-0.23,0.209c-0.115,0.157-0.188,0.324-0.229,0.491
		c-0.021,0.115,0,0.263,0.063,0.449l0.26,0.856l-0.406,0.168c-0.063-0.251-0.137-0.48-0.209-0.711l-0.293-0.931
		c-0.01-0.031-0.021-0.063-0.031-0.073c-0.021-0.042-0.053-0.052-0.094-0.042c-0.021,0.012-0.063,0.042-0.094,0.096
		c-0.021,0.03-0.043,0.063-0.063,0.094v-0.271c0.031-0.03,0.051-0.063,0.072-0.094c0.105-0.115,0.209-0.188,0.303-0.229
		c0.043-0.012,0.072-0.021,0.105-0.021c0.031,0.01,0.051,0.021,0.063,0.042c0.01,0.01,0.02,0.031,0.031,0.073l0.166,0.49
		c0.074-0.24,0.221-0.49,0.408-0.752c0.105-0.137,0.209-0.221,0.303-0.262c0.072-0.031,0.137-0.031,0.199-0.011
		c0.072,0.021,0.125,0.063,0.166,0.136c0.031,0.042,0.053,0.095,0.074,0.157c0.031,0.104,0.082,0.344,0.166,0.71
		c0.074,0.346,0.146,0.574,0.209,0.669c0.021,0.031,0.031,0.053,0.053,0.063C38.882,32.73,38.892,32.74,38.913,32.73L38.913,32.73z
		 M36.542,33.921v-0.125c0,0,0,0,0.01,0c0.072-0.021,0.156-0.042,0.25-0.072l0.012,0.146c-0.074,0.021-0.137,0.031-0.189,0.042
		C36.593,33.911,36.573,33.921,36.542,33.921L36.542,33.921z M36.542,31.759v0.271c-0.043,0.084-0.084,0.167-0.115,0.262
		L36.28,32.25C36.374,32.041,36.458,31.874,36.542,31.759L36.542,31.759z M36.542,33.796c-0.115,0.021-0.252,0.031-0.408,0.031
		l-0.156-1.022l-0.168-1.422c-0.02-0.156-0.02-0.335-0.02-0.543c-0.074,0.083-0.146,0.136-0.242,0.178
		c-0.051,0.021-0.197,0.063-0.428,0.126c-0.021,0-0.041,0.01-0.053,0.01v0.168c0.096-0.031,0.199-0.053,0.303-0.084
		c-0.094,0.136-0.197,0.303-0.303,0.491v0.428l0.031-0.063c0.043-0.083,0.146-0.282,0.324-0.596
		c-0.01,0.313,0.031,0.805,0.125,1.474c-0.082,0.021-0.166,0.03-0.24,0.052c-0.082,0.011-0.166,0.031-0.24,0.042v0.178
		c0.209-0.042,0.377-0.073,0.502-0.094c0.043,0.24,0.053,0.417,0.053,0.521c0,0.146-0.01,0.281-0.043,0.417
		c0.168-0.052,0.293-0.083,0.387-0.104c0.043,0,0.168-0.021,0.365-0.041c0.074,0,0.146-0.011,0.211-0.021V33.796L36.542,33.796z
		 M35.067,31.152v0.168c-0.313,0.083-0.512,0.146-0.596,0.188c-0.156,0.073-0.27,0.157-0.322,0.263
		c-0.063,0.094-0.084,0.188-0.053,0.28c0,0.031,0.031,0.063,0.072,0.115c0.043,0.054,0.074,0.095,0.074,0.115
		c0.01,0.042,0.01,0.073-0.021,0.104c-0.02,0.03-0.063,0.052-0.115,0.063c-0.063,0.011-0.125,0-0.178-0.031
		c-0.051-0.03-0.094-0.084-0.113-0.167c-0.033-0.114-0.033-0.229,0.01-0.354c0.053-0.125,0.125-0.229,0.25-0.334
		c0.115-0.096,0.283-0.179,0.48-0.263C34.649,31.268,34.827,31.216,35.067,31.152L35.067,31.152z M35.067,31.728
		c-0.197,0.354-0.428,0.794-0.668,1.326c-0.346,0.73-0.617,1.212-0.826,1.463c-0.125,0.146-0.26,0.239-0.385,0.261
		c-0.043,0.011-0.115,0.011-0.252,0.011c0,0-0.01,0-0.02,0v0.324c0.051,0,0.104,0,0.156-0.011c0.219-0.042,0.418-0.167,0.615-0.365
		c0.189-0.209,0.461-0.658,0.783-1.368c0.23-0.053,0.43-0.095,0.596-0.126v-0.178c-0.197,0.031-0.355,0.063-0.48,0.084l0.48-0.993
		L35.067,31.728L35.067,31.728z M32.917,33.565v-0.25l0.219,0.01l-0.074,0.24H32.917L32.917,33.565z M32.917,33.315v0.25
		l-1.296-0.041l0.083-0.24L32.917,33.315L32.917,33.315z M32.917,34.788v0.324c-0.033,0-0.074-0.011-0.105-0.021
		c-0.063-0.021-0.105-0.063-0.115-0.113c-0.01-0.042-0.01-0.084,0.021-0.115c0.021-0.031,0.053-0.052,0.104-0.063
		C32.843,34.799,32.874,34.788,32.917,34.788L32.917,34.788z M29.051,34.161v-0.354c0.063-0.115,0.125-0.221,0.188-0.335l0.48-0.877
		c0.011-0.042,0.031-0.063,0.031-0.084c0.01-0.042-0.01-0.063-0.052-0.073c-0.031,0-0.083,0.011-0.146,0.031
		c-0.146,0.053-0.282,0.114-0.408,0.198l-0.094-0.104c0.313-0.156,0.543-0.261,0.721-0.303c0.167-0.041,0.303-0.053,0.418-0.041
		c0.042,0.01,0.073,0.021,0.094,0.041c0.021,0.011,0.032,0.031,0.021,0.053c0,0.011-0.01,0.042-0.031,0.073l-0.24,0.47
		c0.25-0.156,0.543-0.293,0.898-0.407c0.188-0.052,0.334-0.073,0.439-0.063c0.083,0.011,0.136,0.042,0.178,0.083
		c0.031,0.053,0.042,0.114,0.021,0.188c-0.01,0.053-0.031,0.104-0.063,0.167c-0.052,0.094-0.188,0.313-0.408,0.647
		c-0.208,0.313-0.324,0.521-0.345,0.627c-0.01,0.03-0.01,0.053,0,0.072c0.01,0.021,0.031,0.031,0.052,0.031
		c0.052,0.011,0.157-0.021,0.303-0.094c0.105-0.053,0.209-0.104,0.313-0.146l0.052,0.104c-0.219,0.136-0.449,0.24-0.668,0.313
		c-0.146,0.042-0.261,0.063-0.345,0.053c-0.073-0.011-0.125-0.041-0.167-0.095c-0.032-0.052-0.032-0.125-0.011-0.219
		c0.032-0.146,0.22-0.491,0.575-1.023c0.115-0.198,0.178-0.313,0.188-0.346c0.011-0.052-0.021-0.083-0.094-0.094
		c-0.083-0.011-0.199,0.011-0.345,0.063c-0.209,0.073-0.397,0.167-0.554,0.282c-0.104,0.073-0.199,0.209-0.303,0.388l-0.438,0.813
		L29.051,34.161L29.051,34.161z M29.051,32.604c0.073-0.052,0.136-0.114,0.167-0.188c0.042-0.094,0.042-0.178-0.01-0.262
		c-0.032-0.041-0.084-0.083-0.157-0.125V32.604L29.051,32.604z M29.051,32.03v0.574c-0.031,0.032-0.063,0.053-0.105,0.073
		c-0.136,0.072-0.334,0.126-0.605,0.167c-0.115,0.011-0.345,0.031-0.668,0.053v-0.136c0.324-0.021,0.585-0.073,0.793-0.146
		c0.146-0.063,0.241-0.136,0.282-0.219c0.031-0.063,0.031-0.126,0-0.179c-0.021-0.053-0.073-0.084-0.136-0.104
		c-0.073-0.021-0.157-0.021-0.24,0c-0.125,0.031-0.24,0.094-0.355,0.198c-0.136,0.104-0.251,0.229-0.345,0.354v-0.429
		c0.449-0.282,0.867-0.365,1.253-0.251C28.978,31.999,29.02,32.02,29.051,32.03L29.051,32.03z M29.051,33.807v0.354l-0.188-0.021
		C28.925,34.025,28.988,33.921,29.051,33.807L29.051,33.807z M27.672,33.743v-0.208c0.031,0,0.052,0,0.083-0.011
		c0.157-0.011,0.386-0.053,0.7-0.126l0.052,0.126C28.194,33.64,27.912,33.713,27.672,33.743L27.672,33.743z M27.672,32.01
		c0.021-0.012,0.031-0.021,0.042-0.043c0.052-0.063,0.042-0.136,0-0.229c-0.01-0.011-0.031-0.032-0.042-0.053V32.01L27.672,32.01z
		 M27.672,31.686v0.324c-0.021,0.021-0.052,0.03-0.084,0.03c-0.063,0.01-0.115,0.01-0.167-0.011
		c-0.031-0.021-0.063-0.042-0.073-0.063c-0.021-0.021-0.031-0.072-0.042-0.136c-0.021-0.136-0.073-0.22-0.156-0.262
		c-0.052-0.021-0.094-0.031-0.146-0.031v-0.146c0.125,0.01,0.261,0.041,0.387,0.104C27.515,31.561,27.609,31.623,27.672,31.686
		L27.672,31.686z M27.672,32.239v0.429c-0.032,0.031-0.052,0.063-0.084,0.104c0.032,0,0.052,0,0.084-0.011v0.136
		c-0.063,0-0.125,0.011-0.188,0.011c-0.052,0.072-0.104,0.156-0.136,0.229c-0.052,0.104-0.063,0.188-0.042,0.251
		c0.032,0.052,0.084,0.094,0.167,0.113c0.052,0.021,0.125,0.032,0.199,0.032v0.208c-0.251,0.031-0.47,0.021-0.638-0.03
		c-0.01,0-0.021-0.012-0.031-0.012v-0.877c0.157-0.209,0.376-0.396,0.648-0.574C27.661,32.25,27.661,32.239,27.672,32.239
		L27.672,32.239z M27.003,30.254v-0.406c0.042,0.021,0.084,0.042,0.125,0.072c0.073,0.042,0.104,0.095,0.115,0.146
		c0.021,0.053,0,0.094-0.042,0.136c-0.032,0.042-0.083,0.052-0.157,0.052C27.034,30.254,27.014,30.254,27.003,30.254L27.003,30.254z
		 M27.003,29.847v0.406c-0.052-0.01-0.104-0.03-0.157-0.063c-0.031-0.031-0.083-0.063-0.136-0.104
		c-0.115-0.113-0.209-0.177-0.261-0.219c-0.073-0.042-0.157-0.063-0.25-0.042c-0.032,0-0.063,0.011-0.104,0.031V29.68
		c0.136-0.012,0.282,0,0.428,0.021C26.7,29.732,26.857,29.773,27.003,29.847L27.003,29.847z M27.003,31.394v0.146
		c-0.031,0-0.073,0-0.104,0.011c-0.083,0.021-0.157,0.063-0.209,0.125c-0.042,0.063-0.063,0.127-0.063,0.199
		c-0.01,0.072,0.021,0.198,0.073,0.387c0.083,0.262,0.063,0.46-0.042,0.616c-0.115,0.146-0.292,0.24-0.533,0.281
		c-0.01,0-0.021,0-0.031,0V32.93c0.052-0.031,0.083-0.063,0.115-0.104c0.042-0.042,0.052-0.104,0.052-0.178
		c0-0.063-0.021-0.188-0.073-0.365c-0.063-0.251-0.042-0.449,0.073-0.605c0.094-0.137,0.261-0.229,0.47-0.271
		C26.825,31.394,26.909,31.383,27.003,31.394L27.003,31.394z M27.003,32.824c-0.073,0.094-0.136,0.198-0.188,0.303
		c-0.073,0.157-0.094,0.293-0.052,0.388c0.042,0.084,0.115,0.146,0.24,0.188V32.824L27.003,32.824z M26.094,29.68v0.178
		c-0.094,0.031-0.22,0.104-0.387,0.198l-1.253,0.752c0.355-0.031,0.7-0.031,1.034,0.011c0.198,0.021,0.345,0.063,0.418,0.115
		c0.063,0.041,0.094,0.083,0.104,0.136c0,0.052-0.021,0.104-0.083,0.167c-0.042,0.042-0.094,0.073-0.157,0.115
		c-0.094,0.052-0.282,0.155-0.575,0.303c-0.387,0.198-0.627,0.323-0.71,0.376c-0.083,0.052-0.157,0.104-0.209,0.157
		c-0.021,0.021-0.042,0.041-0.042,0.052c0,0.021,0.011,0.031,0.032,0.042c0.031,0.031,0.146,0.042,0.324,0.042
		c0.104,0,0.219,0,0.366,0l-0.011,0.104c-0.282,0.041-0.543,0.041-0.783,0.01c-0.157-0.021-0.272-0.052-0.334-0.094
		c-0.063-0.031-0.083-0.084-0.083-0.146c0-0.052,0.042-0.115,0.125-0.188c0.052-0.054,0.146-0.115,0.271-0.199
		c0.125-0.072,0.418-0.229,0.877-0.471c0.219-0.114,0.345-0.188,0.376-0.22c0.042-0.041,0.042-0.083-0.021-0.114
		c-0.063-0.042-0.177-0.072-0.324-0.084c-0.219-0.021-0.449-0.011-0.668,0.031c-0.146,0.021-0.324,0.094-0.512,0.209l-0.888,0.533
		l-0.157-0.104v-0.239c0.22-0.126,0.407-0.23,0.554-0.313l1.629-0.981c0.303-0.179,0.564-0.292,0.794-0.346
		C25.896,29.69,26,29.68,26.094,29.68L26.094,29.68z M26.094,32.929c-0.021,0.011-0.042,0.021-0.063,0.03
		c-0.083,0.031-0.167,0.042-0.261,0.042c-0.094-0.011-0.188-0.03-0.282-0.084c-0.083-0.03-0.136-0.083-0.167-0.136
		c-0.021-0.052-0.021-0.104,0.011-0.156c0.011-0.011,0.031-0.021,0.042-0.042c0.021-0.021,0.032-0.042,0.042-0.052
		c0.032-0.042,0.032-0.073,0.021-0.115c-0.021-0.042-0.052-0.072-0.104-0.104c-0.052-0.021-0.115-0.031-0.177-0.011
		c-0.063,0.011-0.115,0.042-0.157,0.095c-0.073,0.104-0.084,0.208-0.021,0.323c0.052,0.114,0.188,0.22,0.396,0.323
		c0.251,0.104,0.491,0.146,0.721,0.114v-0.229H26.094z M22.824,29.711c0.209-0.063,0.376-0.094,0.491-0.084
		c0.136,0.013,0.24,0.054,0.313,0.105c0.052,0.052,0.094,0.125,0.115,0.229c0.031,0.104,0.063,0.179,0.115,0.221
		c0.052,0.041,0.104,0.063,0.156,0.071c0.063,0,0.115-0.01,0.167-0.052c0.052-0.042,0.084-0.104,0.073-0.178
		c-0.01-0.073-0.063-0.156-0.167-0.251c-0.167-0.146-0.366-0.229-0.606-0.271c-0.198-0.03-0.417-0.042-0.658-0.011L22.824,29.711
		L22.824,29.711z M22.824,28.886V28.73h0.042l0.157,0.104L22.824,28.886L22.824,28.886z M22.135,26.504
		c0.031,0.031,0.052,0.063,0.084,0.104c0.063,0.083,0.125,0.209,0.177,0.354c0.031,0.072,0.063,0.146,0.094,0.208
		c-0.125,0.021-0.241,0.042-0.355,0.063V26.504L22.135,26.504z M22.824,28.729v0.156l-0.575,0.167
		c-0.042,0.011-0.073,0.021-0.115,0.03v-0.345l0.125-0.041c-0.042-0.073-0.083-0.126-0.125-0.178v-0.282c0,0,0,0,0.01,0
		c0.157,0.073,0.313,0.188,0.47,0.354c0.042,0.053,0.073,0.095,0.115,0.137L22.824,28.729L22.824,28.729z M22.824,29.491v0.22
		c-0.031,0.012-0.063,0.021-0.094,0.031c-0.219,0.073-0.417,0.168-0.595,0.282v-0.386c0.104-0.032,0.22-0.063,0.334-0.096
		C22.594,29.523,22.709,29.502,22.824,29.491L22.824,29.491z M22.824,31.352v0.239l-0.198-0.136
		C22.699,31.424,22.762,31.383,22.824,31.352L22.824,31.352z M22.135,30.923v-0.167c0.157,0.063,0.366,0.104,0.606,0.125
		l-0.083,0.137C22.458,30.996,22.292,30.965,22.135,30.923L22.135,30.923z M21.435,27.444l-0.073-0.115
		c0.199-0.063,0.345-0.115,0.449-0.157c0.136-0.062,0.23-0.146,0.261-0.238c0.042-0.096,0.021-0.188-0.042-0.293
		c-0.115-0.156-0.282-0.263-0.512-0.313c-0.125-0.031-0.251-0.042-0.355-0.031v-0.262c0.199,0.021,0.397,0.074,0.575,0.168
		c0.157,0.073,0.292,0.177,0.397,0.303v0.731c-0.01,0-0.021,0.011-0.031,0.011C21.989,27.277,21.769,27.34,21.435,27.444
		L21.435,27.444z M22.135,28.238v0.282c-0.01,0-0.01-0.012-0.021-0.021c-0.104-0.113-0.24-0.198-0.407-0.24
		c-0.136-0.03-0.324-0.03-0.543-0.01v-0.188c0.073,0,0.146,0,0.22,0.011C21.675,28.092,21.926,28.145,22.135,28.238L22.135,28.238z
		 M22.135,28.739v0.345c-0.271,0.084-0.585,0.179-0.919,0.305c-0.021,0-0.042,0.01-0.053,0.021v-0.376
		c0.053-0.021,0.104-0.031,0.157-0.053L22.135,28.739L22.135,28.739z M22.135,29.639v0.386c-0.031,0.021-0.063,0.042-0.094,0.063
		c-0.146,0.104-0.23,0.209-0.262,0.313c-0.021,0.073,0,0.136,0.063,0.199c0.073,0.063,0.167,0.113,0.292,0.155v0.167
		c-0.345-0.083-0.595-0.197-0.752-0.334c-0.125-0.104-0.157-0.209-0.115-0.335c0.031-0.113,0.125-0.219,0.272-0.322
		C21.707,29.815,21.905,29.711,22.135,29.639L22.135,29.639z M21.163,29.899c0.053,0.011,0.115,0.021,0.188,0.031l0.042-0.126
		c-0.083-0.011-0.157-0.021-0.23-0.041V29.899L21.163,29.899z M21.163,26.295c-0.094,0.012-0.177,0.031-0.25,0.063
		c-0.094,0.042-0.178,0.095-0.23,0.167c-0.052,0.063-0.115,0.178-0.178,0.354c-0.104,0.305-0.209,0.522-0.303,0.647
		c-0.104,0.126-0.219,0.22-0.355,0.282c-0.199,0.084-0.418,0.114-0.669,0.104c-0.25-0.021-0.501-0.094-0.752-0.22
		c-0.24-0.135-0.439-0.303-0.585-0.511c-0.146-0.21-0.199-0.408-0.157-0.606c0.031-0.199,0.125-0.324,0.271-0.396
		c0.083-0.032,0.157-0.042,0.24-0.032c0.073,0.021,0.136,0.042,0.167,0.095c0.032,0.052,0.032,0.104,0.011,0.156
		c-0.021,0.031-0.073,0.073-0.157,0.146c-0.104,0.073-0.178,0.137-0.209,0.198c-0.031,0.053-0.042,0.125-0.042,0.198
		c0.01,0.073,0.031,0.136,0.083,0.209c0.146,0.209,0.355,0.345,0.637,0.418c0.282,0.084,0.533,0.073,0.742-0.021
		c0.073-0.03,0.136-0.072,0.198-0.126c0.063-0.052,0.115-0.113,0.167-0.209c0.042-0.063,0.094-0.188,0.157-0.386
		c0.073-0.188,0.125-0.304,0.157-0.366c0.052-0.072,0.104-0.146,0.178-0.209c0.063-0.052,0.136-0.104,0.219-0.136
		c0.167-0.073,0.366-0.104,0.596-0.084c0.021,0,0.042,0,0.063,0L21.163,26.295L21.163,26.295z M21.163,28.061v0.188
		c-0.042,0.01-0.094,0.01-0.136,0.021c-0.282,0.052-0.533,0.136-0.752,0.261c-0.115,0.063-0.178,0.126-0.199,0.188
		c-0.021,0.052-0.01,0.104,0.031,0.155c0.084,0.096,0.24,0.157,0.46,0.188c0.178,0.031,0.376,0.011,0.595-0.031v0.376
		c-0.177,0.063-0.282,0.104-0.334,0.136c-0.053,0.021-0.063,0.054-0.031,0.096c0.021,0.021,0.073,0.041,0.146,0.071
		c0.073,0.021,0.146,0.042,0.219,0.054V29.9c-0.209-0.042-0.334-0.063-0.397-0.073c-0.146-0.053-0.282-0.094-0.386-0.157
		c-0.063-0.029-0.125-0.071-0.167-0.125c-0.031-0.03-0.042-0.063-0.042-0.094s0.031-0.053,0.063-0.073
		c0.032-0.021,0.063-0.03,0.115-0.042l0.418-0.125c-0.271-0.011-0.554-0.063-0.815-0.146c-0.167-0.053-0.292-0.126-0.365-0.198
		c-0.073-0.084-0.084-0.157-0.063-0.24c0.042-0.104,0.146-0.209,0.292-0.293c0.178-0.094,0.408-0.178,0.7-0.229
		C20.725,28.071,20.944,28.05,21.163,28.061L21.163,28.061z"/>
	<path fill="#EF7D00" d="M46.582,17.666v-0.334c0.084,0.021,0.178,0.031,0.281,0.052l0.502,0.063
		c0.021-0.126,0.031-0.221,0.021-0.283c-0.013-0.104-0.064-0.208-0.158-0.303c-0.095-0.094-0.271-0.188-0.521-0.261
		c-0.041-0.012-0.084-0.021-0.125-0.032v-0.271c0.031,0.011,0.063,0.021,0.084,0.031c0.313,0.125,0.553,0.292,0.709,0.47
		c0.168,0.179,0.252,0.355,0.271,0.513c0,0.042,0,0.094-0.01,0.168c0.323,0.051,0.563,0.104,0.721,0.155
		c0.146,0.063,0.281,0.137,0.396,0.24c0.115,0.104,0.209,0.221,0.283,0.355c0.071,0.146,0.114,0.271,0.125,0.396
		c0,0.063-0.011,0.115-0.043,0.157c-0.031,0.042-0.072,0.072-0.125,0.072c-0.052,0-0.095-0.01-0.125-0.042
		c-0.041-0.03-0.054-0.083-0.063-0.146c0-0.042,0-0.115,0-0.229c0.01-0.105,0.01-0.188,0.01-0.23
		c-0.01-0.052-0.03-0.104-0.063-0.146c-0.041-0.031-0.125-0.072-0.24-0.104c-0.072-0.01-0.313-0.052-0.721-0.114L46.582,17.666
		L46.582,17.666z M46.582,15.42v-0.334c0.031,0,0.063,0,0.084,0c0.219,0.012,0.344,0.012,0.375,0
		c0.053-0.01,0.063-0.052,0.053-0.104c-0.021-0.063-0.074-0.136-0.168-0.219c-0.104-0.104-0.219-0.188-0.344-0.25v-0.45h0.178
		c0.031,0,0.063,0,0.082-0.01c0.043-0.011,0.053-0.031,0.053-0.063c-0.01-0.021-0.041-0.053-0.084-0.094
		c-0.063-0.063-0.145-0.125-0.229-0.167v-0.146c0.24,0.157,0.406,0.282,0.49,0.388c0.094,0.104,0.156,0.197,0.178,0.281
		c0.01,0.032,0.01,0.063,0,0.084c-0.01,0.021-0.031,0.042-0.041,0.042c-0.021,0-0.043,0.011-0.084,0.011l-0.502,0.011
		c0.219,0.115,0.439,0.282,0.648,0.479c0.115,0.115,0.188,0.209,0.209,0.292c0.01,0.063,0,0.115-0.031,0.157
		c-0.031,0.053-0.084,0.083-0.158,0.104c-0.051,0.011-0.104,0.011-0.166,0.011C47.031,15.451,46.854,15.441,46.582,15.42
		L46.582,15.42z M46.582,12.923v-0.596c0.051,0.073,0.094,0.157,0.135,0.25c0.012,0.052,0.031,0.104,0.043,0.157l0.115,0.01
		l0.094,0.136L46.582,12.923L46.582,12.923z M46.582,9.476V9.298c0.031,0.021,0.072,0.031,0.094,0.053
		c0.178,0.084,0.313,0.198,0.396,0.334c0.053,0.072,0.074,0.136,0.074,0.197c0,0.053-0.033,0.095-0.074,0.125
		c-0.041,0.021-0.084,0.031-0.135,0.011c-0.054-0.011-0.097-0.053-0.138-0.115c-0.021-0.042-0.063-0.125-0.114-0.25
		c-0.021-0.052-0.054-0.104-0.072-0.146C46.602,9.497,46.591,9.486,46.582,9.476L46.582,9.476z M46.582,9.298v0.178
		c-0.043-0.042-0.105-0.063-0.189-0.063c-0.082,0.01-0.25,0.063-0.521,0.157l-0.313,0.115V9.319
		c0.219-0.073,0.406-0.104,0.564-0.104C46.279,9.214,46.436,9.246,46.582,9.298L46.582,9.298z M46.582,12.328v0.596l-0.262,0.021
		c-0.23,0.021-0.48,0.063-0.762,0.115v-0.346c0.02,0,0.041-0.011,0.063-0.011l0.793-0.094c-0.021-0.094-0.041-0.167-0.063-0.219
		c-0.054-0.137-0.136-0.24-0.25-0.313c-0.127-0.074-0.293-0.104-0.523-0.115c-0.01,0-0.01,0-0.02,0v-0.229
		c0.112,0.021,0.229,0.053,0.334,0.094c0.219,0.083,0.405,0.188,0.543,0.313C46.488,12.192,46.539,12.254,46.582,12.328
		L46.582,12.328z M46.582,13.581v0.146c-0.021-0.021-0.053-0.031-0.074-0.053l0.063-0.104C46.57,13.581,46.582,13.581,46.582,13.581
		L46.582,13.581z M46.582,14.062v0.45c-0.031-0.012-0.063-0.032-0.094-0.042c-0.105-0.042-0.252-0.063-0.449-0.053h-0.48v-0.334
		c0.082,0,0.166-0.011,0.24-0.011L46.582,14.062L46.582,14.062z M46.582,15.085v0.334c-0.053,0-0.115,0-0.189-0.011
		c-0.344-0.021-0.574-0.01-0.678,0.011c-0.031,0.011-0.053,0.021-0.074,0.031c-0.01,0.021-0.01,0.031-0.01,0.052
		c0.01,0.042,0.072,0.104,0.188,0.179c0.084,0.063,0.156,0.114,0.23,0.167l-0.074,0.083c-0.156-0.083-0.291-0.178-0.416-0.282
		v-0.564C45.703,15.054,46.048,15.054,46.582,15.085L46.582,15.085z M46.582,16.297v0.271c-0.199-0.052-0.377-0.073-0.533-0.052
		c-0.084,0-0.146,0.03-0.199,0.083c-0.051,0.042-0.072,0.104-0.063,0.156c0,0.073,0.043,0.146,0.105,0.229
		c0.104,0.115,0.219,0.208,0.354,0.271c0.063,0.021,0.178,0.054,0.334,0.074v0.334l-0.293-0.042
		c-0.179-0.021-0.293-0.031-0.354-0.031c-0.063,0.012-0.095,0.031-0.084,0.083c0,0.031,0.012,0.063,0.043,0.105
		c0.03,0.052,0.114,0.146,0.26,0.303l-0.094,0.073c-0.197-0.209-0.334-0.355-0.406-0.46c-0.031-0.053-0.063-0.104-0.094-0.146
		v-0.323c0.01,0,0.02,0,0.03,0c0.031-0.011,0.082,0,0.146,0.011l0.305,0.063c-0.23-0.178-0.387-0.335-0.471-0.46c0,0,0,0-0.01-0.011
		v-0.585c0.071-0.052,0.166-0.073,0.291-0.083C46.059,16.141,46.311,16.183,46.582,16.297L46.582,16.297z M45.559,10.854V10.05
		c0.104,0.063,0.188,0.137,0.229,0.209c0.063,0.095,0.074,0.199,0.043,0.304C45.787,10.667,45.703,10.761,45.559,10.854
		L45.559,10.854z M45.559,9.319v0.366l-0.523,0.188c0.199,0.031,0.355,0.084,0.48,0.157c0.021,0,0.03,0.01,0.043,0.021v0.805
		c-0.013,0.01-0.013,0.01-0.021,0.021c-0.23,0.146-0.48,0.23-0.764,0.272c-0.188,0.021-0.354,0.021-0.5-0.011v-0.23
		c0.031,0,0.072,0,0.113-0.01c0.313-0.032,0.596-0.125,0.836-0.282c0.104-0.073,0.178-0.156,0.221-0.24
		c0.02-0.063,0.02-0.125-0.012-0.178c-0.052-0.063-0.146-0.125-0.281-0.157c-0.146-0.042-0.346-0.042-0.596,0.011
		c-0.104,0.021-0.199,0.042-0.281,0.073V9.789l1.096-0.407C45.432,9.361,45.494,9.34,45.559,9.319L45.559,9.319z M45.559,11.732
		v0.229c-0.222-0.011-0.431,0.021-0.617,0.104c-0.105,0.042-0.178,0.083-0.199,0.136c-0.041,0.052-0.041,0.115-0.02,0.167
		c0.041,0.104,0.146,0.198,0.313,0.271c0.146,0.063,0.324,0.094,0.523,0.072v0.346c-0.031,0-0.074,0.01-0.105,0.021
		c-0.178,0.031-0.293,0.052-0.334,0.073c-0.053,0.021-0.063,0.042-0.053,0.083c0.012,0.021,0.043,0.052,0.094,0.094
		c0.094,0.073,0.209,0.136,0.324,0.188l-0.063,0.114c-0.229-0.114-0.364-0.188-0.418-0.219c-0.104-0.073-0.198-0.146-0.262-0.219
		c-0.041-0.052-0.082-0.104-0.104-0.157c-0.01-0.042-0.01-0.073,0-0.094c0.01-0.031,0.031-0.052,0.063-0.063
		c0.021-0.01,0.053-0.021,0.104-0.021l0.346-0.042c-0.209-0.063-0.408-0.167-0.596-0.303c-0.115-0.083-0.188-0.167-0.229-0.262
		c-0.033-0.083-0.033-0.167,0.01-0.239c0.063-0.095,0.156-0.167,0.293-0.229c0.166-0.063,0.354-0.094,0.595-0.084
		C45.337,11.701,45.453,11.711,45.559,11.732L45.559,11.732z M45.559,14.083v0.334l-0.398,0.011l-0.094-0.355
		C45.244,14.072,45.4,14.083,45.559,14.083L45.559,14.083z M45.559,15.085v0.564c-0.031-0.021-0.054-0.052-0.084-0.073
		c-0.095-0.083-0.146-0.167-0.158-0.229c-0.021-0.063-0.01-0.104,0.033-0.157c0.03-0.042,0.104-0.073,0.196-0.104H45.559
		L45.559,15.085z M45.559,16.245v0.585c-0.084-0.115-0.127-0.229-0.138-0.324c0-0.094,0.031-0.167,0.095-0.229
		C45.537,16.266,45.546,16.255,45.559,16.245L45.559,16.245z M45.559,17.227v0.323c-0.031-0.071-0.054-0.136-0.064-0.188
		c0-0.042,0.012-0.073,0.033-0.094C45.537,17.248,45.546,17.237,45.559,17.227L45.559,17.227z M44.273,8.807V8.661
		c0.166,0,0.344,0.011,0.5,0.032c0.137,0.021,0.221,0.063,0.262,0.115c0.031,0.042,0.043,0.083,0.043,0.125
		s-0.021,0.084-0.053,0.104c-0.043,0.032-0.074,0.042-0.125,0.042c-0.043-0.01-0.115-0.052-0.23-0.125
		c-0.115-0.063-0.209-0.104-0.303-0.136C44.335,8.817,44.305,8.807,44.273,8.807L44.273,8.807z M44.273,8.504V8.149
		c0.082,0.042,0.156,0.094,0.188,0.136c0.021,0.021,0.031,0.042,0.031,0.063c0,0.021-0.01,0.042-0.031,0.052
		c-0.01,0.021-0.063,0.042-0.146,0.084L44.273,8.504L44.273,8.504z M44.273,8.149v0.354l-0.367,0.179
		c0.127-0.011,0.242-0.021,0.367-0.021v0.146c-0.074-0.012-0.168-0.021-0.271-0.021c-0.146,0.01-0.262,0.021-0.355,0.052
		c-0.094,0.021-0.283,0.115-0.573,0.251l-0.439,0.22V8.912l0.388-0.167c0.303-0.146,0.584-0.282,0.854-0.417
		c0.063-0.031,0.104-0.053,0.115-0.063c0.03-0.031,0.03-0.053,0.012-0.083c-0.012-0.021-0.053-0.031-0.104-0.053
		c-0.063-0.021-0.178-0.042-0.365-0.063l0.01-0.104c0.23,0.011,0.43,0.053,0.596,0.125C44.189,8.107,44.23,8.128,44.273,8.149
		L44.273,8.149z M44.273,9.789v0.334c-0.146,0.052-0.283,0.115-0.408,0.198c-0.072,0.052-0.125,0.115-0.135,0.188
		c-0.021,0.084-0.013,0.157,0.031,0.221c0.081,0.135,0.25,0.188,0.512,0.177v0.23c-0.097-0.012-0.178-0.031-0.252-0.063
		c-0.209-0.084-0.365-0.199-0.459-0.345c-0.084-0.125-0.115-0.251-0.095-0.376c0.031-0.125,0.104-0.229,0.22-0.304
		c0.094-0.063,0.239-0.125,0.428-0.198L44.273,9.789L44.273,9.789z M42.632,7.584V7.407c0.063,0.01,0.115,0.01,0.166,0.01
		c0.127-0.01,0.229-0.052,0.293-0.114c0.043-0.053,0.074-0.104,0.074-0.167c0-0.054-0.021-0.104-0.063-0.146
		c-0.043-0.031-0.104-0.063-0.178-0.063c-0.084-0.011-0.189,0.011-0.293,0.053V6.77c0.313-0.032,0.564,0.03,0.752,0.209
		c0.084,0.083,0.125,0.157,0.135,0.25c0,0.083-0.029,0.157-0.094,0.229c-0.072,0.083-0.176,0.137-0.291,0.157
		C43.007,7.647,42.841,7.637,42.632,7.584L42.632,7.584z M42.632,6.77v0.209c-0.01,0-0.021,0.01-0.043,0.01
		c-0.166,0.083-0.334,0.178-0.49,0.303c0.199,0.063,0.377,0.104,0.533,0.115v0.177h-0.01c-0.104-0.03-0.324-0.094-0.648-0.197
		C41.9,7.438,41.837,7.49,41.786,7.553c-0.021,0.021-0.043,0.042-0.053,0.063V7.104c0.178-0.125,0.387-0.209,0.619-0.271
		C42.455,6.801,42.548,6.78,42.632,6.77L42.632,6.77z M42.632,8.912v0.397l-0.239-0.282L42.632,8.912L42.632,8.912z M41.733,8.19
		V7.93c0.053,0.042,0.115,0.083,0.198,0.104c0.115,0.042,0.305,0.073,0.555,0.104l-0.01,0.125
		C42.183,8.274,41.931,8.243,41.733,8.19L41.733,8.19z M41.733,6.488V6.279c0.041-0.042,0.084-0.083,0.115-0.136
		c0.031-0.042,0.051-0.104,0.063-0.188c0.02-0.083,0.031-0.146,0.063-0.178c0.021-0.042,0.053-0.063,0.094-0.073
		c0.041-0.011,0.084,0,0.115,0.021c0.042,0.03,0.063,0.072,0.063,0.136c0,0.052-0.031,0.136-0.094,0.22
		C42.046,6.237,41.9,6.373,41.733,6.488L41.733,6.488z M41.733,6.279v0.209c-0.137,0.083-0.293,0.157-0.471,0.22
		c-0.406,0.137-0.836,0.178-1.264,0.137V6.342c0.115-0.251,0.199-0.418,0.262-0.512c0.104-0.136,0.229-0.251,0.396-0.345
		C40.812,5.402,41,5.349,41.199,5.349c-0.24-0.167-0.428-0.262-0.564-0.282c-0.094-0.01-0.156,0-0.197,0.052
		c-0.012,0.011-0.021,0.052-0.031,0.115c-0.012,0.031-0.021,0.063-0.043,0.083c-0.01,0.021-0.031,0.042-0.063,0.042
		c-0.032,0-0.063,0-0.084-0.021c-0.041-0.031-0.063-0.063-0.063-0.104c0-0.052,0.012-0.094,0.053-0.146
		c0.053-0.083,0.125-0.136,0.219-0.156c0.105-0.031,0.23-0.021,0.387,0.042c0.146,0.052,0.334,0.146,0.543,0.303
		c0.115,0.021,0.178,0.042,0.199,0.052c0.021,0.021,0.041,0.042,0.041,0.073c0.012,0.031,0,0.052-0.01,0.073
		c-0.031,0.042-0.094,0.052-0.209,0.03c-0.209,0.083-0.387,0.188-0.512,0.282c-0.137,0.094-0.24,0.209-0.324,0.334
		c-0.084,0.115-0.188,0.313-0.303,0.595c0.449-0.021,0.814-0.083,1.076-0.188C41.493,6.446,41.628,6.373,41.733,6.279L41.733,6.279z
		 M41.733,7.104v0.512c-0.041,0.052-0.074,0.104-0.074,0.146c0,0.063,0.021,0.114,0.074,0.167V8.19
		c-0.168-0.052-0.303-0.115-0.408-0.208C41.241,7.898,41.21,7.814,41.21,7.71c0.012-0.094,0.074-0.208,0.199-0.334
		C41.503,7.271,41.608,7.177,41.733,7.104L41.733,7.104z M39.999,4.691V4.21c0.084,0.042,0.137,0.104,0.178,0.167
		c0.041,0.083,0.053,0.167,0.021,0.23c-0.021,0.042-0.053,0.063-0.096,0.083C40.062,4.702,40.03,4.702,39.999,4.691L39.999,4.691z
		 M39.999,4.21v0.48c-0.01,0-0.021-0.01-0.031-0.01c-0.031-0.012-0.053-0.031-0.063-0.053c-0.01-0.021-0.031-0.072-0.043-0.136
		c-0.031-0.136-0.072-0.219-0.145-0.25c-0.064-0.031-0.127-0.031-0.199-0.01c-0.063,0.021-0.115,0.073-0.146,0.136
		c-0.031,0.063-0.041,0.125-0.041,0.198s0.031,0.199,0.084,0.387c0.082,0.25,0.082,0.46,0.01,0.616
		c-0.084,0.157-0.209,0.261-0.396,0.313c-0.199,0.053-0.398,0.021-0.607-0.083c-0.051-0.021-0.104-0.052-0.146-0.083V5.067
		c0.021,0,0.043,0.011,0.064,0.021c0.041,0.011,0.072,0.042,0.094,0.083c0.01,0.042,0.01,0.083-0.012,0.125
		c0,0.011-0.01,0.031-0.031,0.053c-0.01,0.021-0.02,0.03-0.02,0.042c-0.021,0.052-0.021,0.104,0,0.156
		c0.02,0.053,0.072,0.095,0.135,0.137c0.084,0.03,0.156,0.052,0.23,0.052c0.072,0.011,0.146-0.01,0.209-0.052
		c0.051-0.031,0.094-0.084,0.125-0.137c0.021-0.053,0.031-0.114,0.031-0.188c-0.01-0.063-0.031-0.188-0.084-0.366
		c-0.072-0.24-0.072-0.438,0.012-0.596c0.072-0.146,0.188-0.251,0.354-0.303c0.168-0.042,0.346-0.031,0.523,0.063
		C39.937,4.168,39.968,4.189,39.999,4.21L39.999,4.21z M39.999,6.342v0.501c-0.072-0.011-0.146-0.021-0.219-0.031
		c0.041-0.073,0.094-0.178,0.156-0.346C39.958,6.425,39.978,6.383,39.999,6.342L39.999,6.342z M38.274,4.064
		c0.096-0.074,0.168-0.157,0.199-0.251c0.041-0.094,0.041-0.178,0-0.25c-0.031-0.073-0.104-0.136-0.199-0.167V4.064L38.274,4.064z
		 M38.274,3.396v0.669c0,0-0.01,0-0.02,0.01c-0.043,0.032-0.094,0.052-0.168,0.084V3.824c0.012-0.01,0.012-0.021,0.021-0.031
		c0.021-0.063,0.021-0.125,0-0.177c0-0.021-0.01-0.032-0.021-0.052v-0.22c0.053,0,0.115,0.021,0.168,0.042
		C38.265,3.385,38.265,3.385,38.274,3.396L38.274,3.396z M38.274,5.067v0.647c-0.094-0.063-0.156-0.136-0.188-0.209V5.182
		c0.021-0.053,0.063-0.084,0.115-0.104C38.224,5.067,38.255,5.057,38.274,5.067L38.274,5.067z M38.087,3.343v0.221
		c-0.021-0.021-0.053-0.042-0.084-0.063c-0.063-0.021-0.125-0.021-0.188,0c-0.094,0.031-0.188,0.095-0.281,0.188
		c-0.137,0.146-0.252,0.292-0.346,0.449V3.667c0.021-0.01,0.043-0.021,0.053-0.042C37.544,3.396,37.825,3.301,38.087,3.343
		L38.087,3.343z M38.087,3.824c-0.041,0.073-0.104,0.136-0.209,0.178c-0.178,0.084-0.396,0.125-0.689,0.146v0.136
		c0.293-0.021,0.492-0.042,0.586-0.052c0.125-0.021,0.229-0.052,0.313-0.073L38.087,3.824L38.087,3.824z M38.087,5.182v0.323
		C38.034,5.391,38.034,5.287,38.087,5.182L38.087,5.182z M37.188,5.119V4.911c0.043,0,0.074,0,0.115,0
		c0.125-0.011,0.303-0.053,0.553-0.126l0.043,0.136C37.628,5.025,37.397,5.098,37.188,5.119L37.188,5.119z M37.188,1.724V1.546
		c0.031-0.01,0.063-0.021,0.105-0.021c0.146-0.021,0.281-0.021,0.406,0c0.063,0.021,0.115,0.053,0.137,0.094
		c0.031,0.042,0.041,0.083,0.031,0.136c-0.012,0.053-0.031,0.083-0.084,0.115c-0.041,0.021-0.094,0.021-0.146,0.011
		c-0.041-0.011-0.115-0.042-0.219-0.072c-0.105-0.042-0.178-0.073-0.219-0.083C37.2,1.724,37.2,1.724,37.188,1.724L37.188,1.724z
		 M37.188,1.546v0.179c-0.053-0.012-0.104,0-0.146,0.021c-0.053,0.021-0.104,0.094-0.178,0.198
		c-0.041,0.063-0.145,0.271-0.322,0.638l-0.68,1.368c-0.084,0.167-0.125,0.271-0.137,0.324c-0.01,0.063,0,0.104,0.053,0.115
		c0.021,0,0.063,0,0.105-0.012c0.063-0.021,0.176-0.072,0.365-0.156l0.053,0.104c-0.262,0.136-0.451,0.22-0.564,0.251
		c-0.158,0.052-0.283,0.063-0.367,0.042V4.262l0.105-0.178c-0.041,0.021-0.074,0.041-0.105,0.063V3.98
		c0.043-0.031,0.084-0.063,0.127-0.104c0.063-0.072,0.166-0.25,0.313-0.554l0.219-0.449c-0.125-0.063-0.209-0.094-0.26-0.104
		c-0.105-0.032-0.221-0.012-0.346,0.052c-0.021,0.011-0.031,0.021-0.053,0.032V2.675c0.012-0.011,0.031-0.011,0.043-0.021
		c0.219-0.094,0.418-0.125,0.574-0.083c0.031,0,0.084,0.021,0.146,0.052c0.146-0.292,0.271-0.512,0.375-0.637
		c0.105-0.125,0.221-0.23,0.355-0.303C36.97,1.62,37.073,1.578,37.188,1.546L37.188,1.546z M37.188,3.667
		c-0.293,0.241-0.502,0.513-0.615,0.825c-0.064,0.157-0.084,0.292-0.053,0.387c0.031,0.096,0.104,0.157,0.209,0.199
		c0.125,0.052,0.281,0.063,0.459,0.042V4.911C37.147,4.9,37.116,4.89,37.085,4.879c-0.074-0.021-0.115-0.063-0.125-0.114
		c-0.021-0.063-0.012-0.146,0.029-0.251c0.033-0.073,0.064-0.157,0.115-0.229c0.031,0,0.053,0,0.084,0V4.147v-0.01V3.667
		L37.188,3.667z M35.37,2.675v0.179c-0.104,0.063-0.229,0.197-0.354,0.386c-0.146,0.219-0.252,0.418-0.283,0.596
		c-0.021,0.083-0.021,0.156,0.012,0.209c0.031,0.063,0.082,0.104,0.135,0.115c0.063,0.021,0.146,0.01,0.25-0.032
		c0.084-0.041,0.168-0.083,0.24-0.146v0.167c-0.188,0.126-0.354,0.209-0.469,0.251C34.755,4.44,34.63,4.451,34.524,4.43
		c-0.084-0.021-0.146-0.083-0.188-0.167c-0.041-0.083-0.041-0.198-0.01-0.345c0.051-0.229,0.188-0.47,0.418-0.73
		C34.954,2.946,35.163,2.779,35.37,2.675L35.37,2.675z M35.37,4.262l-0.051,0.094c-0.031,0.063-0.053,0.104-0.053,0.125
		c-0.01,0.031,0,0.063,0.021,0.083c0.01,0.031,0.041,0.052,0.082,0.052L35.37,4.262L35.37,4.262z M30.576,4.033V3.834
		c0.042-0.031,0.083-0.083,0.136-0.136c0.104-0.136,0.178-0.324,0.208-0.554l0.115-0.783c-0.094-0.01-0.167-0.01-0.23,0
		c-0.083,0.01-0.157,0.031-0.229,0.073V2.226l0.01-0.012c0.125-0.072,0.292-0.125,0.501-0.155c0.052,0,0.104-0.012,0.157-0.012
		l0.042-0.094l0.157-0.063l-0.104,0.647c-0.042,0.25-0.073,0.543-0.104,0.867c-0.01,0.177-0.01,0.292-0.01,0.345
		c0.01,0.053,0.031,0.073,0.073,0.073c0.021-0.01,0.063-0.031,0.115-0.073c0.094-0.072,0.178-0.156,0.261-0.261l0.094,0.083
		c-0.167,0.199-0.272,0.313-0.324,0.355c-0.094,0.083-0.188,0.146-0.271,0.197c-0.063,0.032-0.125,0.042-0.178,0.054
		c-0.042,0.01-0.073,0-0.104-0.021c-0.021-0.011-0.032-0.042-0.042-0.073c0-0.031,0-0.063,0.01-0.104l0.063-0.345
		C30.816,3.782,30.712,3.918,30.576,4.033L30.576,4.033z M32.175,2.591l-0.074-0.094c0.221-0.178,0.398-0.303,0.523-0.354
		c0.135-0.063,0.24-0.083,0.334-0.073c0.031,0,0.053,0.01,0.072,0.021c0.021,0.021,0.031,0.031,0.031,0.053
		c-0.01,0.021-0.01,0.042-0.02,0.083l-0.146,0.479c0.178-0.167,0.387-0.324,0.658-0.47c0.135-0.073,0.25-0.104,0.334-0.104
		c0.063,0.012,0.115,0.031,0.146,0.073c0.031,0.042,0.041,0.104,0.041,0.178c0,0.053-0.021,0.104-0.031,0.178
		c-0.041,0.094-0.125,0.323-0.262,0.679c-0.125,0.324-0.188,0.543-0.197,0.648c0,0.03,0,0.052,0.01,0.072
		c0.012,0.021,0.021,0.031,0.043,0.031c0.041,0,0.125-0.042,0.229-0.125c0.074-0.063,0.146-0.115,0.23-0.167l0.053,0.094
		c-0.168,0.157-0.324,0.282-0.502,0.366c-0.104,0.063-0.188,0.083-0.262,0.083c-0.063,0-0.104-0.031-0.135-0.073
		c-0.031-0.052-0.043-0.125-0.031-0.229c0.01-0.146,0.125-0.501,0.344-1.066c0.074-0.198,0.105-0.313,0.105-0.354
		c0.01-0.053-0.021-0.073-0.084-0.083c-0.063,0-0.146,0.03-0.262,0.094c-0.156,0.084-0.281,0.199-0.396,0.324
		c-0.074,0.083-0.137,0.219-0.199,0.417l-0.25,0.836l-0.365-0.021c0.082-0.24,0.156-0.47,0.229-0.699l0.283-0.909
		c0.01-0.042,0.01-0.063,0.01-0.083c0.01-0.042-0.01-0.063-0.041-0.073c-0.021,0-0.063,0.021-0.115,0.052
		C32.372,2.424,32.269,2.507,32.175,2.591L32.175,2.591z M30.576,2.226v0.209c-0.052,0.021-0.094,0.052-0.136,0.094
		c-0.094,0.094-0.178,0.251-0.25,0.47c-0.063,0.219-0.084,0.439-0.063,0.638c0.011,0.114,0.042,0.188,0.084,0.239
		c0.042,0.042,0.094,0.063,0.157,0.054c0.073-0.012,0.136-0.042,0.209-0.095v0.198c-0.032,0.032-0.073,0.063-0.105,0.094
		c-0.115,0.095-0.219,0.147-0.313,0.157c-0.094,0.01-0.167-0.021-0.23-0.073c-0.083-0.084-0.125-0.198-0.146-0.345
		c-0.021-0.167,0-0.366,0.063-0.585c0.073-0.229,0.167-0.428,0.303-0.626C30.273,2.466,30.419,2.33,30.576,2.226L30.576,2.226z
		 M24.412,6.363V5.976c0.042-0.095,0.073-0.199,0.094-0.313l0.115,0.031c-0.052,0.251-0.094,0.407-0.115,0.459
		C24.475,6.237,24.444,6.3,24.412,6.363L24.412,6.363z M24.412,4.085l0.282,0.972c0.125,0.418,0.209,0.668,0.282,0.783
		c0.031,0.063,0.073,0.095,0.115,0.115c0.052,0.021,0.094,0.01,0.136-0.01c0.104-0.063,0.199-0.178,0.293-0.366
		c0.083-0.198,0.156-0.386,0.188-0.574l-0.115-0.03c-0.052,0.177-0.115,0.345-0.188,0.479c-0.042,0.073-0.073,0.115-0.104,0.136
		C25.27,5.611,25.238,5.6,25.218,5.548c-0.011-0.011-0.094-0.281-0.251-0.783l-0.303-1.014c-0.115-0.365-0.178-0.617-0.209-0.742
		c-0.031-0.125-0.031-0.22-0.01-0.281c0.01-0.042,0.052-0.073,0.104-0.115c0.063-0.031,0.125-0.063,0.199-0.084
		c0.094-0.031,0.157-0.063,0.198-0.083c0.063-0.042,0.104-0.083,0.125-0.136c0.011-0.042,0.011-0.095-0.021-0.137
		C25.028,2.131,24.987,2.1,24.945,2.1c-0.052-0.011-0.115,0-0.177,0.03c-0.136,0.083-0.261,0.199-0.355,0.334L24.412,4.085
		L24.412,4.085z M26.888,5.025L26.877,4.89c0.157-0.073,0.262-0.137,0.313-0.199c0.042-0.052,0.073-0.136,0.084-0.251
		c0.021-0.125,0.021-0.354,0.01-0.71c-0.01-0.46,0-0.794,0.031-1.014c0.052-0.313,0.157-0.574,0.303-0.763
		c0.157-0.188,0.334-0.313,0.522-0.366c0.125-0.031,0.241-0.031,0.345,0.011s0.157,0.094,0.178,0.167
		c0.01,0.03,0.01,0.072-0.01,0.104c-0.021,0.032-0.042,0.053-0.083,0.063c-0.052,0.01-0.115,0-0.199-0.042
		c-0.094-0.053-0.167-0.073-0.209-0.083c-0.052-0.012-0.094-0.012-0.136,0c-0.042,0.011-0.084,0.03-0.125,0.072
		c-0.052,0.053-0.094,0.137-0.146,0.25c-0.042,0.115-0.073,0.282-0.094,0.491C27.64,2.769,27.64,2.999,27.64,3.312
		c0.011,0.512,0,0.846-0.021,1.013c-0.011,0.125-0.042,0.23-0.084,0.324c0.209-0.115,0.387-0.188,0.522-0.22
		c0.083-0.021,0.157-0.042,0.23-0.053c0.073-0.01,0.209-0.01,0.397-0.021c0.167,0,0.271-0.01,0.334-0.031
		c0.063-0.021,0.104-0.052,0.146-0.094c0.031-0.052,0.031-0.105,0.021-0.146c0-0.031-0.031-0.073-0.063-0.114
		c-0.031-0.053-0.052-0.083-0.063-0.115c-0.01-0.042-0.01-0.083,0.011-0.115c0.021-0.031,0.052-0.052,0.083-0.063
		c0.052-0.012,0.094,0,0.146,0.03c0.042,0.031,0.073,0.083,0.094,0.157c0.031,0.146,0.01,0.271-0.073,0.408
		c-0.094,0.125-0.229,0.219-0.428,0.271c-0.094,0.021-0.22,0.053-0.376,0.083c-0.522,0.083-0.867,0.156-1.024,0.198
		C27.264,4.89,27.055,4.952,26.888,5.025L26.888,5.025z M24.412,2.466v1.62l-0.021-0.095c-0.115-0.386-0.177-0.646-0.188-0.793
		c-0.01-0.23,0.042-0.439,0.146-0.627C24.37,2.539,24.391,2.497,24.412,2.466L24.412,2.466z M24.412,5.976v0.387
		c-0.021,0.031-0.042,0.073-0.063,0.094c-0.031,0.063-0.073,0.104-0.125,0.136c-0.031,0.021-0.063,0.031-0.094,0.031
		c-0.032,0-0.052-0.021-0.073-0.052c-0.021-0.021-0.031-0.052-0.042-0.094L23.9,6.153c-0.021,0.209-0.073,0.428-0.167,0.638
		c-0.052,0.137-0.115,0.23-0.199,0.282c-0.063,0.042-0.125,0.063-0.188,0.052V6.666c0.01,0.01,0.031,0.021,0.042,0.021
		c0.063,0.021,0.115,0.01,0.167-0.021c0.094-0.063,0.157-0.188,0.188-0.366c0.042-0.167,0.021-0.365-0.063-0.585l-0.272-0.752
		c-0.021,0.012-0.042,0.021-0.063,0.032V4.66c0.031-0.021,0.063-0.042,0.104-0.063l-0.01-0.115l0.115-0.115l0.198,0.606
		c0.084,0.25,0.188,0.521,0.324,0.824c0.073,0.167,0.125,0.262,0.146,0.304c0.031,0.042,0.063,0.052,0.094,0.031
		c0.021-0.011,0.052-0.052,0.073-0.114C24.402,6.007,24.412,5.986,24.412,5.976L24.412,5.976z M23.347,4.66v0.334
		c-0.052,0.021-0.104,0.052-0.136,0.073c-0.125,0.094-0.209,0.199-0.251,0.324c-0.042,0.136-0.042,0.313,0,0.532
		c0.042,0.229,0.125,0.429,0.251,0.596c0.042,0.072,0.094,0.114,0.136,0.146v0.459c-0.021,0-0.031,0-0.052-0.01
		c-0.104-0.032-0.199-0.104-0.282-0.23c-0.104-0.136-0.177-0.323-0.219-0.554c-0.052-0.229-0.063-0.459-0.031-0.688
		c0.031-0.229,0.094-0.429,0.188-0.596c0.073-0.126,0.188-0.251,0.355-0.365C23.326,4.67,23.336,4.66,23.347,4.66L23.347,4.66z
		 M20.756,9.977V9.518c0.021-0.012,0.031-0.031,0.052-0.053c0.042-0.063,0.073-0.125,0.083-0.22
		c0.021-0.115,0.032-0.303,0.032-0.563h0.136c0.073,0.554,0.021,0.939-0.146,1.17C20.871,9.915,20.808,9.957,20.756,9.977
		L20.756,9.977z M20.756,7.783V7.574c0.01,0.01,0.031,0.021,0.042,0.031c0.021,0.021,0.021,0.042,0.021,0.073
		c0,0.03-0.01,0.052-0.031,0.083C20.776,7.773,20.766,7.783,20.756,7.783L20.756,7.783z M20.756,7.021
		c0.052-0.074,0.115-0.147,0.198-0.23c-0.031,0.198-0.01,0.387,0.052,0.555c0.063,0.177,0.157,0.323,0.282,0.448
		c0.094,0.083,0.282,0.23,0.575,0.418c0.146,0.095,0.25,0.157,0.313,0.199c0.167-0.479,0.208-0.972,0.125-1.473
		c-0.063-0.407-0.219-0.731-0.47-0.982c-0.084-0.073-0.157-0.115-0.209-0.125c-0.052-0.01-0.104,0.011-0.136,0.042
		c-0.032,0.031-0.042,0.073-0.042,0.115s0.021,0.073,0.052,0.104c0.021,0.031,0.083,0.063,0.167,0.083
		c0.083,0.031,0.146,0.063,0.178,0.095c0.125,0.125,0.22,0.313,0.292,0.595c0.063,0.272,0.073,0.638,0.021,1.086
		c-0.261-0.167-0.439-0.292-0.543-0.387c-0.104-0.115-0.198-0.229-0.282-0.375c-0.073-0.136-0.136-0.324-0.199-0.555
		c0.042-0.104,0.042-0.167,0.011-0.209c-0.021-0.011-0.042-0.021-0.074-0.021c-0.031,0-0.063,0.01-0.073,0.031
		c-0.021,0.011-0.052,0.083-0.094,0.188c-0.052,0.052-0.104,0.105-0.146,0.167v0.231H20.756z M20.756,6.791v0.23
		c-0.083,0.104-0.136,0.198-0.167,0.282C20.558,7.397,20.568,7.46,20.6,7.502c0.021,0.011,0.052,0.031,0.115,0.053
		c0.011,0.01,0.021,0.01,0.042,0.021v0.209c-0.031,0.01-0.052,0.021-0.083,0.01c-0.042,0-0.094-0.021-0.136-0.063
		c-0.063-0.073-0.104-0.157-0.115-0.25c-0.021-0.105,0.021-0.22,0.094-0.366C20.568,7.01,20.651,6.906,20.756,6.791L20.756,6.791z
		 M20.756,9.518c-0.031,0.021-0.063,0.03-0.094,0.03c-0.063,0-0.136-0.03-0.229-0.094c-0.063-0.052-0.136-0.104-0.199-0.167
		c0.073-0.334,0.115-0.554,0.125-0.668c0.021-0.22,0.01-0.387-0.031-0.512c-0.032-0.115-0.104-0.209-0.188-0.271
		c-0.083-0.052-0.156-0.083-0.24-0.063c-0.011,0-0.021,0-0.021,0v0.365c0.042,0,0.094,0.011,0.146,0.052
		c0.073,0.052,0.125,0.146,0.146,0.271c0.031,0.188,0.021,0.429-0.042,0.71c-0.094-0.094-0.178-0.198-0.25-0.303v0.543
		c0.115,0.177,0.261,0.324,0.417,0.438c0.146,0.104,0.262,0.146,0.366,0.146c0.032,0,0.063-0.011,0.094-0.021V9.518L20.756,9.518z
		 M19.878,10.938V10.53c0.021,0.021,0.052,0.031,0.073,0.042c0.032,0.01,0.052,0.021,0.073,0.021c0.011,0,0.032-0.011,0.042-0.021
		c0.021-0.053,0.01-0.136-0.021-0.272c-0.031-0.094-0.052-0.177-0.073-0.271l0.115-0.011c0.073,0.209,0.125,0.407,0.146,0.596
		c0.011,0.125,0,0.219-0.031,0.271c-0.031,0.063-0.073,0.094-0.125,0.104C20.024,11.001,19.951,10.98,19.878,10.938L19.878,10.938z
		 M18.531,16.412c0.073-0.042,0.125-0.083,0.177-0.125c0.146-0.136,0.22-0.271,0.23-0.408c0-0.136-0.063-0.229-0.209-0.281
		c-0.083-0.031-0.136-0.063-0.157-0.083c-0.021-0.031-0.031-0.063-0.031-0.104c0-0.031,0.021-0.073,0.042-0.094
		c0.031-0.031,0.063-0.042,0.104-0.042c0.094,0.011,0.188,0.063,0.271,0.188c0.094,0.115,0.136,0.271,0.125,0.449
		c-0.011,0.146-0.052,0.292-0.136,0.429c-0.084,0.137-0.209,0.262-0.387,0.366c-0.01,0.01-0.021,0.021-0.031,0.031v-0.325H18.531z
		 M19.878,7.773v0.365c-0.011,0-0.021,0-0.031,0c-0.053,0-0.094,0.031-0.136,0.072c-0.031,0.053-0.042,0.115-0.042,0.188
		c0,0.094,0.042,0.199,0.104,0.313c0.032,0.053,0.063,0.104,0.105,0.157v0.543c-0.094-0.136-0.167-0.271-0.241-0.438
		C19.46,8.555,19.47,8.2,19.669,7.939C19.732,7.846,19.794,7.793,19.878,7.773L19.878,7.773z M19.878,10.531v0.408
		c-0.011,0-0.021,0-0.021,0c-0.136-0.074-0.418-0.313-0.846-0.742c-0.157-0.146-0.25-0.219-0.282-0.24
		c-0.052-0.021-0.083,0-0.115,0.052c-0.031,0.053-0.031,0.146-0.021,0.272c0.021,0.178,0.073,0.345,0.146,0.501
		c0.052,0.104,0.146,0.208,0.303,0.344l0.668,0.564l-0.167,0.324c-0.188-0.179-0.366-0.334-0.543-0.48l-0.47-0.396v-0.439
		l0.063,0.052c-0.021-0.052-0.042-0.114-0.063-0.188V9.528c0.01-0.01,0.031-0.021,0.042-0.021c0.053-0.021,0.115-0.01,0.188,0.031
		c0.042,0.021,0.094,0.052,0.146,0.094c0.073,0.073,0.25,0.24,0.522,0.501C19.627,10.322,19.773,10.458,19.878,10.531L19.878,10.531
		z M18.531,15.336c0-0.011,0-0.021,0-0.031c0.021-0.073,0.021-0.167,0-0.262V15.336L18.531,15.336z M18.531,14.553v-0.867
		c0.073,0.146,0.125,0.25,0.136,0.292c0.052,0.114,0.073,0.229,0.083,0.334c0.011,0.063,0.011,0.125-0.01,0.178
		c-0.011,0.042-0.021,0.073-0.052,0.083c-0.021,0.021-0.053,0.021-0.094,0.011C18.583,14.584,18.552,14.573,18.531,14.553
		L18.531,14.553z M18.531,13.122v-0.407c0.042,0.031,0.094,0.063,0.146,0.095l0.418,0.261l-0.125,0.345L18.531,13.122L18.531,13.122
		z M17.747,16.684c0.042,0,0.073-0.011,0.115-0.021c0.282-0.083,0.501-0.167,0.669-0.251v0.324
		c-0.178,0.094-0.428,0.198-0.763,0.293c0,0-0.01,0.01-0.021,0.01V16.684L17.747,16.684z M17.747,17.822
		c0.157,0.042,0.271,0.073,0.345,0.084c0.052-0.104,0.073-0.199,0.083-0.293c0-0.021,0-0.052,0-0.094l0.115,0.042
		c0,0.03,0,0.052,0,0.063c0,0.052-0.01,0.126-0.021,0.229c-0.021,0.104-0.031,0.188-0.031,0.251c0,0.136,0.021,0.354,0.063,0.646
		l-0.125-0.01c-0.021-0.168-0.063-0.271-0.115-0.345c-0.052-0.063-0.136-0.115-0.25-0.157c-0.021-0.01-0.042-0.01-0.063-0.021
		L17.747,17.822L17.747,17.822z M18.531,9.528v1.034c-0.053-0.179-0.094-0.388-0.115-0.605c-0.01-0.157,0-0.271,0.042-0.345
		C18.468,9.57,18.499,9.538,18.531,9.528L18.531,9.528z M18.531,10.698l-0.334-0.261c-0.021-0.032-0.042-0.042-0.063-0.054
		c-0.01-0.01-0.031-0.01-0.052,0c-0.021,0.012-0.042,0.032-0.063,0.063c-0.042,0.083-0.052,0.188-0.052,0.334
		c0,0.136,0.042,0.344,0.125,0.626l0.115-0.042c-0.053-0.115-0.074-0.241-0.094-0.366c0-0.053,0-0.094,0.011-0.115
		c0.01-0.03,0.042-0.042,0.083-0.021c0.01,0.011,0.031,0.032,0.063,0.053l0.261,0.22V10.698L18.531,10.698z M18.531,12.714v0.407
		l-0.125-0.083c-0.23-0.146-0.449-0.292-0.658-0.418v-0.387l0.136,0.084c-0.042-0.052-0.094-0.115-0.136-0.178v-0.304
		c0.011,0,0.011,0.012,0.011,0.012c0.031,0.094,0.083,0.209,0.167,0.323c0.083,0.125,0.157,0.22,0.229,0.282
		C18.207,12.505,18.332,12.589,18.531,12.714L18.531,12.714z M18.531,13.686v0.867c-0.011,0-0.021,0-0.021-0.011l-0.303-0.178
		c0.125,0.178,0.229,0.376,0.303,0.595c0,0.032,0.01,0.054,0.021,0.084v0.292c-0.032,0.073-0.073,0.137-0.146,0.157
		c-0.104,0.052-0.23,0.052-0.366,0.021c-0.083-0.021-0.177-0.063-0.271-0.104v-0.354c0.063,0.021,0.125,0.042,0.178,0.052
		c0.115,0.031,0.199,0.031,0.25,0c0.052-0.021,0.094-0.063,0.105-0.125c0.031-0.104,0-0.24-0.084-0.397
		c-0.094-0.146-0.24-0.281-0.449-0.396v-0.376c0.115,0.063,0.24,0.115,0.366,0.178c0.157,0.073,0.261,0.125,0.313,0.136
		c0.042,0.011,0.073,0,0.083-0.042c0.01-0.031,0-0.072-0.021-0.136c-0.031-0.115-0.083-0.229-0.146-0.334l0.115-0.052
		C18.478,13.602,18.51,13.654,18.531,13.686L18.531,13.686z M15.438,15.378l0.063,0.011c0.021,0.136,0.063,0.25,0.104,0.334
		c0.052,0.094,0.136,0.209,0.261,0.365c0.324,0.397,0.575,0.752,0.752,1.044c0.104-0.071,0.219-0.146,0.355-0.197
		c0.115-0.053,0.376-0.137,0.773-0.251v0.354c-0.324,0.094-0.543,0.167-0.668,0.23c-0.125,0.052-0.261,0.135-0.397,0.229
		l0.982,0.303c0.031,0.012,0.063,0.012,0.083,0.021v0.396c-0.261-0.094-0.637-0.209-1.118-0.354L15.5,17.518
		c0.011,0.323,0.073,0.585,0.188,0.772c0.094,0.156,0.199,0.229,0.324,0.229c0.042,0.011,0.094-0.012,0.156-0.053
		c0.063-0.03,0.115-0.053,0.146-0.053c0.042,0,0.083,0.021,0.115,0.053c0.032,0.031,0.052,0.072,0.052,0.114
		c-0.01,0.054-0.031,0.104-0.083,0.136c-0.052,0.043-0.125,0.063-0.208,0.054c-0.22,0-0.429-0.125-0.596-0.355
		c-0.178-0.24-0.25-0.637-0.24-1.19l0.01-0.166c0.229,0.104,0.396,0.166,0.501,0.196l0.742,0.222
		c-0.042-0.115-0.115-0.263-0.219-0.431c-0.104-0.167-0.22-0.322-0.345-0.479c-0.219-0.282-0.345-0.438-0.397-0.48
		c-0.011-0.01-0.032-0.01-0.042-0.021c-0.01,0-0.021,0.021-0.031,0.052c-0.021,0.032-0.032,0.125-0.032,0.282l-0.136-0.031
		c0.021-0.209,0.042-0.387,0.042-0.521C15.459,15.712,15.449,15.556,15.438,15.378L15.438,15.378z M17.747,11.836v0.304
		c-0.125-0.179-0.23-0.376-0.313-0.564c-0.052-0.125-0.063-0.219-0.042-0.282c0.01-0.052,0.042-0.083,0.083-0.104
		c0.042-0.021,0.083-0.021,0.125-0.011c0.042,0.021,0.063,0.042,0.083,0.084s0.031,0.125,0.031,0.261
		C17.716,11.648,17.726,11.753,17.747,11.836L17.747,11.836z M17.747,12.233l-0.251-0.156c-0.073-0.052-0.125-0.084-0.146-0.084
		c-0.021-0.01-0.042-0.01-0.063,0c-0.01,0.01-0.032,0.032-0.042,0.063c-0.021,0.083-0.021,0.209,0.01,0.386
		c0.021,0.167,0.094,0.354,0.199,0.563l0.104-0.042c-0.073-0.167-0.125-0.281-0.136-0.345c-0.021-0.063-0.021-0.104-0.021-0.125
		c0.021-0.031,0.042-0.042,0.073-0.031c0.021,0.011,0.063,0.031,0.125,0.063c0.052,0.032,0.104,0.063,0.146,0.094v-0.387H17.747z
		 M17.747,13.811c-0.146-0.083-0.292-0.157-0.417-0.23l-0.554-0.334l-0.01,0.167l0.083,0.083c-0.021,0.052-0.042,0.104-0.052,0.146
		c-0.052,0.209-0.063,0.376-0.031,0.521c0.031,0.188,0.115,0.376,0.25,0.564c0.125,0.198,0.293,0.366,0.47,0.501
		c0.094,0.073,0.178,0.135,0.261,0.177v-0.354c-0.136-0.063-0.271-0.137-0.397-0.24c-0.178-0.137-0.292-0.271-0.345-0.397
		c-0.053-0.126-0.063-0.261-0.031-0.407c0.021-0.053,0.042-0.125,0.083-0.209l0.689,0.387L17.747,13.811L17.747,13.811z"/>
	<path fill="#FFFFFF" d="M31.944,9.006h8.766c-0.012,4.91,0,9.936-0.012,14.834c-0.094,3.271-5.4,6.353-8.754,6.331
		c-3.364,0.021-8.681-3.061-8.775-6.331c-0.01-4.898,0-9.924,0-14.834H31.944L31.944,9.006z"/>
	<polygon fill="#EF7D00" points="38.388,13.448 39.028,13.811 39.269,13.853 39.372,14.093 39.132,13.989 39.204,14.438 
		38.944,14.135 38.882,14.605 38.673,14.104 38.37,14.219 38.505,13.874 38.296,13.589 	"/>
	<polygon fill="#EF7D00" points="36.737,13.453 36.29,13.717 35.956,13.769 35.81,13.79 35.706,14.041 35.997,13.916 35.862,14.365 
		36.155,14.072 36.259,14.594 36.437,14.072 36.729,14.25 36.593,13.884 36.829,13.616 	"/>
	<polygon points="34.44,22.81 34.452,22.799 34.44,22.81 35.257,23.426 35.298,23.813 35.058,23.771 34.89,23.896 34.88,24.167 
		34.985,24.167 35.017,24.063 35.026,24.167 35.11,24.167 35.142,24.063 35.151,24.167 36.06,24.167 36.165,23.958 36.175,22.819 
		35.517,22.35 35.319,21.356 34.921,21.252 34.649,20.98 34.181,20.604 33.511,20.375 32.624,20.166 32.55,20.521 32.581,20.197 
		31.903,19.633 31.025,19.644 30.085,20.104 30.043,20.531 30.022,20.166 29.834,19.988 29.636,20.02 29.5,20.25 28.988,20.28 
		28.863,20.417 28.873,20.657 28.226,21.044 28.215,21.189 28.435,21.462 28.852,21.462 28.57,21.534 29.009,21.691 29.27,21.827 
		29.928,21.921 29.928,22.109 29.552,22.245 29.218,22.496 28.894,22.903 28.643,23.217 28.622,23.446 28.737,23.446 28.769,23.342 
		28.79,23.446 28.873,23.446 28.894,23.342 28.915,23.446 29.667,23.426 29.813,23.195 30.001,23.039 30.461,22.726 30.471,22.423 
		30.639,22.621 30.66,23.718 30.451,23.738 30.262,23.854 30.189,24.167 30.335,24.167 30.367,24.063 30.377,24.167 30.461,24.156 
		30.482,24.052 30.492,24.167 31.422,24.167 31.652,23.248 31.673,22.841 31.589,22.632 31.589,22.245 31.714,22.496 32.06,22.736 
		32.864,22.851 33.146,23.384 33.136,23.771 32.958,23.771 32.718,23.906 32.718,24.167 32.853,24.167 32.874,24.073 32.896,24.156 
		32.999,24.167 33.021,24.073 33.042,24.167 33.888,24.167 34.368,23.582 34.378,23.07 34.337,22.705 34.39,22.579 	"/>
	<path fill="#EF7D00" d="M29.375,20.662l-0.139-0.111c-0.042,0.069-0.055,0.125-0.014,0.182L29.375,20.662L29.375,20.662z"/>
	<polygon fill="#4B9228" points="23.221,11.596 40.667,23.495 40.667,20.936 23.211,9.079 	"/>
	<path fill="#EF7D00" d="M23.143,9.079l0.01,2.553l17.582,11.992v-2.725L23.143,8.95V9.079L23.143,9.079z M23.279,9.207
		C23.49,9.35,40.54,20.932,40.601,20.972c0,0.065,0,2.166,0,2.395C40.39,23.224,23.348,11.6,23.289,11.56
		C23.289,11.495,23.28,9.436,23.279,9.207L23.279,9.207z"/>
	<path fill="#EF7D00" d="M23.352,10.52l0.508,1.116c0,0,0.638,0.036,1.213,0.069c0.233,0.511,0.493,1.081,0.493,1.081
		s0.636,0.039,1.208,0.074c0.236,0.514,0.499,1.086,0.499,1.086s0.629,0.037,1.194,0.07c0.232,0.516,0.49,1.091,0.49,1.091
		s0.634,0.04,1.205,0.075c0.232,0.503,0.491,1.063,0.491,1.063s0.632,0.044,1.2,0.085c0.24,0.516,0.506,1.085,0.506,1.085
		s0.629,0.048,1.191,0.09c0.234,0.508,0.494,1.072,0.494,1.072s0.635,0.04,1.209,0.076c0.23,0.497,0.486,1.052,0.486,1.052
		s0.621,0.05,1.176,0.094c0.242,0.512,0.51,1.077,0.51,1.077s0.643,0.055,1.225,0.104c0.232,0.5,0.49,1.055,0.49,1.055l1.467,0.196
		l-0.643-1.346c0,0-0.621-0.053-1.18-0.1c-0.24-0.514-0.504-1.083-0.504-1.083s-0.646-0.051-1.23-0.098
		c-0.24-0.508-0.508-1.073-0.508-1.073s-0.611-0.039-1.154-0.074c-0.23-0.499-0.488-1.056-0.488-1.056s-0.639-0.048-1.215-0.091
		c-0.238-0.518-0.502-1.09-0.502-1.09s-0.629-0.045-1.195-0.085c-0.237-0.51-0.501-1.077-0.501-1.077s-0.627-0.039-1.189-0.074
		c-0.24-0.521-0.506-1.097-0.506-1.097s-0.626-0.037-1.188-0.07c-0.229-0.511-0.486-1.081-0.486-1.081s-0.636-0.04-1.208-0.075
		c-0.236-0.514-0.499-1.086-0.499-1.086s-0.633-0.036-1.202-0.069c-0.233-0.511-0.494-1.083-0.494-1.083l-1.431-0.058L23.352,10.52
		L23.352,10.52z M23.606,10.586c0.231,0.01,0.877,0.036,0.974,0.039c0.02,0.045,0.202,0.444,0.397,0.871
		c-0.482-0.028-0.934-0.054-0.982-0.057C23.956,11.354,23.701,10.794,23.606,10.586L23.606,10.586z M25.304,11.719
		c0.476,0.027,0.923,0.053,0.972,0.056c0.02,0.044,0.205,0.446,0.402,0.875c-0.479-0.03-0.928-0.059-0.977-0.062
		C25.681,12.546,25.498,12.146,25.304,11.719L25.304,11.719z M27.005,12.875c0.478,0.029,0.927,0.058,0.976,0.061
		c0.02,0.044,0.2,0.444,0.392,0.872c-0.474-0.028-0.917-0.055-0.966-0.057C27.387,13.707,27.202,13.304,27.005,12.875L27.005,12.875
		z M28.697,14.03c0.47,0.027,0.912,0.053,0.959,0.056c0.021,0.044,0.208,0.45,0.409,0.887c-0.477-0.03-0.924-0.059-0.972-0.062
		C29.073,14.867,28.891,14.462,28.697,14.03L28.697,14.03z M30.394,15.197c0.469,0.029,0.912,0.057,0.959,0.06
		c0.02,0.043,0.206,0.441,0.402,0.864c-0.474-0.034-0.92-0.065-0.967-0.068C30.768,16.009,30.585,15.613,30.394,15.197
		L30.394,15.197z M32.087,16.349c0.469,0.032,0.914,0.064,0.961,0.067c0.02,0.043,0.205,0.447,0.404,0.878
		c-0.469-0.034-0.912-0.067-0.959-0.071C32.474,17.18,32.286,16.777,32.087,16.349L32.087,16.349z M33.782,17.524
		c0.482,0.036,0.934,0.068,0.982,0.073c0.02,0.043,0.199,0.433,0.391,0.848c-0.48-0.031-0.928-0.06-0.977-0.063
		C34.159,18.34,33.976,17.943,33.782,17.524L33.782,17.524z M35.485,18.67c0.449,0.028,0.877,0.057,0.924,0.06
		c0.02,0.043,0.207,0.438,0.406,0.858c-0.457-0.035-0.895-0.07-0.941-0.074C35.854,19.471,35.675,19.082,35.485,18.67L35.485,18.67z
		 M37.149,19.819c0.49,0.039,0.947,0.075,0.996,0.079c0.02,0.042,0.205,0.442,0.404,0.869c-0.486-0.041-0.943-0.079-0.99-0.083
		C37.54,20.643,37.351,20.243,37.149,19.819L37.149,19.819z M38.884,21c0.461,0.039,0.902,0.076,0.947,0.08
		c0.039,0.08,0.318,0.668,0.43,0.899c-0.254-0.034-0.898-0.12-0.982-0.132C39.259,21.809,39.075,21.413,38.884,21L38.884,21z"/>
	<path fill="#4B9228" d="M40.218,19.4c-0.752,0.574-1.557-0.084-1.295-0.638c-0.094-0.053-0.166-0.104-0.25-0.167
		c-0.836,0.303-1.547-0.24-1.004-1.243c0.021-0.042,0.209-0.198,0.24-0.251c-0.094-0.063-0.262-0.22-0.355-0.271
		c-0.051,0.073-0.145,0.376-0.197,0.439c-0.795,0.938-1.662,0.01-1.566-0.555c-0.064-0.042-0.137-0.083-0.199-0.125
		c-0.867,0.251-1.65-0.376-1.035-1.337c0.031-0.052,0.168-0.146,0.209-0.197c-0.072-0.042-0.324-0.198-0.396-0.251
		c-0.053,0.072-0.094,0.229-0.146,0.293c-0.908,0.971-1.578,0.094-1.504-0.408c-0.084-0.052-0.168-0.115-0.262-0.167
		c-0.762,0.292-1.587-0.355-1.086-1.316c0.031-0.063,0.188-0.146,0.229-0.209c-0.063-0.042-0.282-0.24-0.345-0.282
		c-0.042,0.083-0.094,0.292-0.146,0.355c-0.522,0.647-1.462,0.575-1.514-0.47c-0.084-0.042-0.157-0.104-0.241-0.146
		c-0.616,0.125-1.671-0.178-1.076-1.399c0.031-0.053,0.198-0.167,0.24-0.221c-0.073-0.042-0.303-0.188-0.376-0.229
		c-0.042,0.063-0.073,0.271-0.115,0.324c-0.627,0.71-1.63,0.438-1.567-0.418c-0.083-0.042-0.157-0.095-0.24-0.137
		c-0.585,0.251-1.17-0.438-1.212-1.327H23.16l17.508,11.889V19.63L40.218,19.4L40.218,19.4z"/>
	<path fill="#EF7D00" d="M25.007,8.979h-2.07l17.798,12.084v-1.477l-0.523-0.268l-0.035,0.025c-0.41,0.313-0.807,0.224-1.021,0.051
		c-0.201-0.162-0.268-0.399-0.172-0.604l0.027-0.058l-0.055-0.031c-0.086-0.048-0.154-0.096-0.242-0.162l-0.029-0.021l-0.035,0.012
		c-0.393,0.143-0.771,0.09-0.967-0.136c-0.195-0.229-0.178-0.597,0.047-1.012c0.01-0.016,0.064-0.067,0.102-0.104
		c0.072-0.068,0.117-0.112,0.137-0.145l0.033-0.057l-0.053-0.036c-0.039-0.024-0.092-0.067-0.146-0.113
		c-0.076-0.063-0.156-0.127-0.215-0.16l-0.053-0.03L37.5,16.788c-0.029,0.042-0.064,0.128-0.104,0.228
		c-0.029,0.077-0.072,0.184-0.092,0.208c-0.295,0.35-0.633,0.461-0.951,0.313c-0.313-0.145-0.545-0.522-0.496-0.813l0.008-0.045
		l-0.262-0.165l-0.031,0.007c-0.424,0.123-0.846,0.023-1.047-0.245c-0.189-0.254-0.158-0.605,0.09-0.99
		c0.012-0.021,0.064-0.065,0.1-0.096c0.043-0.035,0.082-0.068,0.104-0.098l0.051-0.062l-0.068-0.04
		c-0.072-0.041-0.322-0.197-0.393-0.247l-0.055-0.04l-0.039,0.056c-0.029,0.041-0.055,0.1-0.078,0.156
		c-0.021,0.05-0.045,0.106-0.064,0.131c-0.348,0.371-0.699,0.499-0.99,0.359c-0.279-0.134-0.43-0.477-0.396-0.712l0.006-0.042
		l-0.129-0.086c-0.055-0.037-0.111-0.074-0.172-0.108l-0.027-0.016l-0.029,0.012c-0.354,0.135-0.742,0.058-0.966-0.195
		c-0.229-0.257-0.242-0.631-0.036-1.025c0.01-0.021,0.066-0.063,0.1-0.088c0.051-0.039,0.1-0.076,0.126-0.115l0.038-0.057
		l-0.056-0.038c-0.028-0.02-0.102-0.081-0.167-0.138c-0.074-0.063-0.144-0.122-0.178-0.145l-0.064-0.043l-0.034,0.069
		c-0.019,0.036-0.038,0.091-0.058,0.147c-0.023,0.07-0.057,0.165-0.08,0.193c-0.253,0.313-0.624,0.459-0.923,0.36
		c-0.279-0.091-0.451-0.379-0.472-0.792l-0.002-0.04l-0.035-0.018c-0.038-0.019-0.074-0.043-0.113-0.069
		c-0.041-0.026-0.082-0.055-0.128-0.078l-0.021-0.01l-0.023,0.004c-0.352,0.072-0.823-0.004-1.043-0.289
		c-0.084-0.108-0.126-0.241-0.126-0.396c0-0.179,0.056-0.385,0.167-0.613c0.013-0.02,0.077-0.072,0.115-0.104
		c0.051-0.042,0.096-0.078,0.119-0.107l0.05-0.062l-0.069-0.039c-0.036-0.021-0.113-0.068-0.187-0.114l-0.245-0.15l-0.035,0.056
		c-0.026,0.04-0.045,0.107-0.065,0.18c-0.012,0.045-0.033,0.12-0.046,0.138c-0.344,0.39-0.78,0.444-1.061,0.326
		c-0.265-0.111-0.409-0.371-0.386-0.695l0.003-0.045l-0.041-0.02c-0.04-0.021-0.077-0.042-0.116-0.065
		c-0.04-0.023-0.08-0.048-0.125-0.069l-0.028-0.015l-0.029,0.013c-0.177,0.075-0.362,0.059-0.536-0.051
		c-0.328-0.206-0.556-0.683-0.581-1.217l-0.003-0.063h-0.069V8.979z M24.944,9.115c0.042,0.551,0.29,1.042,0.64,1.261
		c0.203,0.127,0.42,0.151,0.63,0.072c0.03,0.017,0.06,0.034,0.09,0.052c0.027,0.017,0.056,0.033,0.085,0.049
		c0,0.013-0.001,0.023-0.001,0.035c0,0.349,0.172,0.625,0.471,0.751c0.326,0.138,0.829,0.078,1.217-0.362l0.001-0.001l0.001-0.001
		c0.028-0.035,0.045-0.096,0.071-0.188c0.006-0.024,0.015-0.053,0.023-0.079c0.055,0.034,0.119,0.073,0.119,0.073
		c0.04,0.023,0.079,0.048,0.112,0.069c-0.013,0.011-0.026,0.021-0.04,0.032c-0.077,0.063-0.125,0.104-0.146,0.141l-0.001,0.003
		l-0.001,0.002c-0.133,0.272-0.182,0.496-0.182,0.676c0,0.219,0.072,0.375,0.155,0.481c0.249,0.32,0.761,0.414,1.151,0.343
		c0.032,0.017,0.063,0.037,0.096,0.059c0.03,0.021,0.061,0.04,0.093,0.059c0.033,0.45,0.236,0.77,0.563,0.876
		c0.352,0.114,0.782-0.049,1.069-0.404c0.039-0.047,0.07-0.139,0.104-0.235c0.006-0.018,0.012-0.036,0.019-0.054
		c0.03,0.025,0.065,0.055,0.099,0.083c0.042,0.035,0.081,0.068,0.114,0.096c-0.016,0.014-0.033,0.026-0.049,0.038
		c-0.059,0.045-0.116,0.087-0.139,0.135c-0.108,0.207-0.162,0.41-0.162,0.599c0,0.219,0.073,0.418,0.217,0.581
		c0.255,0.287,0.687,0.381,1.083,0.243c0.047,0.027,0.092,0.058,0.137,0.087c0,0,0.033,0.021,0.063,0.041
		c-0.002,0.014-0.004,0.026-0.004,0.042c0,0.272,0.168,0.619,0.479,0.768c0.201,0.097,0.621,0.176,1.15-0.39v-0.001l0.002-0.001
		c0.033-0.041,0.059-0.103,0.086-0.167c0.01-0.024,0.021-0.049,0.031-0.071c0.074,0.049,0.184,0.117,0.262,0.166
		c-0.01,0.008-0.018,0.016-0.027,0.023c-0.055,0.046-0.105,0.089-0.129,0.128c-0.152,0.237-0.229,0.473-0.229,0.685
		c0,0.17,0.049,0.326,0.146,0.458c0.23,0.308,0.695,0.427,1.164,0.303c0.029,0.019,0.111,0.07,0.139,0.088
		c-0.002,0.019-0.004,0.035-0.004,0.054c0,0.329,0.246,0.704,0.582,0.858c0.373,0.173,0.777,0.045,1.111-0.351
		c0.033-0.038,0.064-0.118,0.115-0.245c0.018-0.046,0.039-0.098,0.057-0.139c0.043,0.03,0.09,0.069,0.135,0.105
		c0.035,0.028,0.066,0.056,0.096,0.078c-0.021,0.022-0.051,0.049-0.072,0.069c-0.08,0.077-0.115,0.109-0.129,0.14
		c-0.131,0.242-0.197,0.473-0.197,0.677c0,0.188,0.057,0.354,0.17,0.485c0.229,0.265,0.639,0.335,1.078,0.187
		c0.063,0.047,0.119,0.086,0.178,0.121c-0.021,0.063-0.031,0.126-0.031,0.19c0,0.189,0.094,0.381,0.264,0.52
		c0.246,0.199,0.693,0.309,1.154-0.021c0.057,0.028,0.318,0.163,0.377,0.191c0,0.069,0,0.936,0,1.137
		C40.392,20.667,23.736,9.357,23.38,9.115C23.709,9.115,24.841,9.115,24.944,9.115L24.944,9.115z"/>
	<path fill="#4B9228" d="M31.579,13.038c-0.24,0-0.428-0.188-0.417-0.418c0-0.229,0.188-0.407,0.417-0.407
		c0.23,0,0.418,0.188,0.418,0.407C31.997,12.85,31.809,13.038,31.579,13.038L31.579,13.038z"/>
	<path fill="#EF7D00" d="M31.093,12.62v-0.003c-0.005,0.126,0.04,0.247,0.127,0.338c0.093,0.098,0.22,0.15,0.358,0.15
		c0.268,0,0.487-0.218,0.487-0.486c0-0.258-0.223-0.476-0.487-0.476C31.306,12.145,31.093,12.354,31.093,12.62L31.093,12.62z
		 M31.319,12.862c-0.062-0.065-0.094-0.149-0.09-0.239v-0.001V12.62c0-0.189,0.154-0.34,0.35-0.34c0.189,0,0.35,0.156,0.35,0.34
		c0,0.193-0.157,0.351-0.35,0.351C31.478,12.97,31.385,12.932,31.319,12.862L31.319,12.862z"/>
	<path fill="#4B9228" d="M26.543,10.51c-0.23,0-0.418-0.188-0.418-0.418s0.198-0.418,0.428-0.418
		c0.23,0.012,0.418,0.188,0.418,0.418C26.972,10.322,26.784,10.51,26.543,10.51L26.543,10.51z"/>
	<path fill="#EF7D00" d="M26.554,9.606c-0.269,0-0.496,0.223-0.496,0.485c0,0.269,0.218,0.485,0.486,0.485
		c0.274,0,0.496-0.218,0.496-0.485c0-0.26-0.212-0.474-0.482-0.485h-0.001H26.554L26.554,9.606z M26.193,10.092
		c0-0.188,0.165-0.349,0.359-0.35c0.197,0.01,0.352,0.163,0.352,0.35c0,0.196-0.158,0.351-0.36,0.351
		C26.35,10.442,26.193,10.285,26.193,10.092L26.193,10.092z"/>
	<path fill="#4B9228" d="M27.682,11.105c-0.23,0-0.418-0.188-0.418-0.418s0.188-0.418,0.418-0.418c0.24,0,0.428,0.188,0.428,0.418
		C28.1,10.917,27.912,11.105,27.682,11.105L27.682,11.105z"/>
	<path fill="#EF7D00" d="M27.196,10.688c0,0.268,0.218,0.485,0.486,0.485c0.266,0,0.484-0.212,0.496-0.482V10.69v-0.001
		c0-0.269-0.222-0.486-0.496-0.486C27.414,10.202,27.196,10.419,27.196,10.688L27.196,10.688z M27.332,10.688
		c0-0.193,0.157-0.351,0.35-0.351c0.198,0,0.359,0.156,0.36,0.35c-0.01,0.193-0.171,0.352-0.36,0.352
		C27.489,11.038,27.332,10.88,27.332,10.688L27.332,10.688z"/>
	<path fill="#4B9228" d="M28.643,11.69c-0.229,0-0.417-0.188-0.417-0.418c0-0.23,0.188-0.418,0.417-0.418
		c0.23,0,0.418,0.188,0.418,0.418C29.061,11.502,28.873,11.69,28.643,11.69L28.643,11.69z"/>
	<path fill="#EF7D00" d="M28.157,11.272c0,0.268,0.218,0.485,0.486,0.485c0.129,0,0.251-0.051,0.343-0.143
		c0.092-0.092,0.143-0.214,0.143-0.343c0-0.269-0.218-0.486-0.486-0.486C28.375,10.787,28.157,11.004,28.157,11.272L28.157,11.272z
		 M28.293,11.272c0-0.193,0.157-0.351,0.35-0.351s0.35,0.157,0.35,0.351c0,0.093-0.037,0.181-0.103,0.247
		c-0.066,0.065-0.154,0.103-0.247,0.103C28.45,11.622,28.293,11.465,28.293,11.272L28.293,11.272z"/>
	<path fill="#4B9228" d="M28.497,10.865c-0.23-0.01-0.418-0.188-0.418-0.417c0-0.23,0.188-0.418,0.418-0.418
		s0.418,0.188,0.418,0.418C28.915,10.677,28.727,10.865,28.497,10.865L28.497,10.865z"/>
	<path fill="#EF7D00" d="M28.011,10.447c0,0.26,0.212,0.473,0.482,0.486h0.002h0.001c0.268,0,0.486-0.219,0.486-0.486
		c0-0.129-0.051-0.251-0.143-0.343c-0.092-0.092-0.214-0.144-0.343-0.144C28.229,9.961,28.011,10.179,28.011,10.447L28.011,10.447z
		 M28.147,10.447c0-0.193,0.157-0.35,0.35-0.35c0.093,0,0.181,0.036,0.247,0.103s0.103,0.154,0.103,0.247
		c0,0.192-0.156,0.349-0.348,0.35C28.301,10.787,28.147,10.634,28.147,10.447L28.147,10.447z"/>
	<path fill="#4B9228" d="M29.688,12.609c-0.229,0-0.418-0.188-0.418-0.417c0-0.22,0.188-0.407,0.428-0.407
		c0.23,0,0.418,0.188,0.418,0.417C30.116,12.422,29.928,12.609,29.688,12.609L29.688,12.609z"/>
	<path fill="#EF7D00" d="M29.202,12.192c0,0.268,0.218,0.486,0.486,0.486c0.273,0,0.496-0.214,0.496-0.477
		c0-0.268-0.218-0.486-0.486-0.486C29.424,11.716,29.202,11.93,29.202,12.192L29.202,12.192z M29.338,12.192
		c0-0.188,0.162-0.339,0.36-0.339c0.193,0,0.35,0.157,0.35,0.35c0,0.188-0.162,0.339-0.36,0.339
		C29.495,12.542,29.338,12.385,29.338,12.192L29.338,12.192z"/>
	<path fill="#4B9228" d="M30.764,13.247c-0.229,0-0.417-0.188-0.417-0.418c0-0.229,0.188-0.407,0.428-0.407
		c0.23,0,0.418,0.188,0.418,0.407C31.192,13.059,31.004,13.247,30.764,13.247L30.764,13.247z"/>
	<path fill="#EF7D00" d="M30.278,12.829c0,0.269,0.218,0.486,0.486,0.486c0.274,0,0.497-0.218,0.497-0.486
		c0-0.258-0.223-0.476-0.486-0.476C30.496,12.354,30.278,12.563,30.278,12.829L30.278,12.829z M30.414,12.829
		c0-0.189,0.158-0.339,0.36-0.339c0.189,0,0.35,0.155,0.35,0.339c0,0.196-0.158,0.351-0.36,0.351
		C30.571,13.179,30.414,13.022,30.414,12.829L30.414,12.829z"/>
	<path fill="#4B9228" d="M31.704,13.863c-0.23,0-0.418-0.188-0.418-0.418s0.188-0.417,0.418-0.417s0.418,0.188,0.418,0.417
		S31.935,13.863,31.704,13.863L31.704,13.863z"/>
	<path fill="#EF7D00" d="M31.218,13.445c0,0.268,0.218,0.486,0.486,0.486s0.486-0.219,0.486-0.486s-0.219-0.486-0.486-0.486
		C31.436,12.959,31.218,13.178,31.218,13.445L31.218,13.445z M31.354,13.445c0-0.193,0.157-0.35,0.35-0.35s0.35,0.156,0.35,0.35
		s-0.156,0.35-0.35,0.35C31.511,13.795,31.354,13.638,31.354,13.445L31.354,13.445z"/>
	<path fill="#4B9228" d="M32.802,14.688c-0.23,0-0.418-0.188-0.418-0.418s0.188-0.417,0.418-0.417c0.229,0,0.406,0.188,0.406,0.417
		S33.03,14.688,32.802,14.688L32.802,14.688z"/>
	<path fill="#EF7D00" d="M32.315,14.271c0,0.268,0.219,0.485,0.486,0.485c0.266,0,0.475-0.213,0.475-0.485
		c0-0.273-0.209-0.486-0.475-0.486C32.534,13.785,32.315,14.003,32.315,14.271L32.315,14.271z M32.452,14.271
		c0-0.192,0.156-0.351,0.35-0.351c0.189,0,0.34,0.154,0.34,0.351c0,0.195-0.15,0.35-0.34,0.35
		C32.608,14.621,32.452,14.464,32.452,14.271L32.452,14.271z"/>
	<path fill="#4B9228" d="M33.888,15.252c-0.23,0-0.418-0.188-0.418-0.417s0.188-0.407,0.428-0.407c0.23,0,0.418,0.188,0.418,0.418
		C34.315,15.064,34.118,15.252,33.888,15.252L33.888,15.252z"/>
	<path fill="#EF7D00" d="M33.401,14.835c0,0.269,0.219,0.486,0.486,0.486c0.27,0,0.496-0.218,0.496-0.476
		c0-0.269-0.217-0.486-0.486-0.486C33.62,14.359,33.401,14.568,33.401,14.835L33.401,14.835z M33.538,14.835
		c0-0.189,0.158-0.339,0.359-0.339c0.193,0,0.35,0.157,0.35,0.351c0,0.181-0.168,0.339-0.359,0.339
		C33.694,15.185,33.538,15.028,33.538,14.835L33.538,14.835z"/>
	<path fill="#4B9228" d="M34.724,15.096c-0.23,0-0.418-0.188-0.418-0.418c0-0.221,0.188-0.408,0.418-0.408s0.418,0.188,0.418,0.418
		C35.142,14.918,34.954,15.096,34.724,15.096L34.724,15.096z"/>
	<path fill="#EF7D00" d="M34.237,14.678c0,0.268,0.219,0.485,0.486,0.485c0.271,0,0.486-0.209,0.486-0.476
		c0-0.269-0.219-0.486-0.486-0.486C34.46,14.203,34.237,14.42,34.237,14.678L34.237,14.678z M34.374,14.678
		c0-0.185,0.16-0.34,0.35-0.34c0.193,0,0.35,0.157,0.35,0.351c0,0.189-0.154,0.34-0.35,0.34
		C34.53,15.028,34.374,14.871,34.374,14.678L34.374,14.678z"/>
	<path fill="#4B9228" d="M34.88,15.921c-0.23,0-0.418-0.188-0.418-0.418c0-0.229,0.188-0.418,0.418-0.418s0.418,0.188,0.418,0.418
		C35.298,15.733,35.11,15.921,34.88,15.921L34.88,15.921z"/>
	<path fill="#EF7D00" d="M34.394,15.503c0,0.269,0.219,0.486,0.486,0.486s0.486-0.218,0.486-0.486c0-0.268-0.219-0.485-0.486-0.485
		S34.394,15.236,34.394,15.503L34.394,15.503z M34.53,15.503c0-0.192,0.156-0.35,0.35-0.35c0.194,0,0.35,0.157,0.35,0.35
		c0,0.193-0.156,0.351-0.35,0.351C34.686,15.853,34.53,15.696,34.53,15.503L34.53,15.503z"/>
	<path fill="#4B9228" d="M35.903,16.726c-0.229,0-0.418-0.179-0.418-0.407c0-0.23,0.199-0.418,0.43-0.418
		c0.229,0,0.416,0.188,0.416,0.418C36.331,16.548,36.144,16.726,35.903,16.726L35.903,16.726z"/>
	<path fill="#EF7D00" d="M35.419,16.318c0,0.267,0.213,0.475,0.484,0.475c0.279,0,0.496-0.208,0.496-0.475
		c0-0.269-0.217-0.486-0.484-0.486C35.646,15.833,35.419,16.055,35.419,16.318L35.419,16.318z M35.554,16.318
		c0-0.19,0.166-0.351,0.361-0.351c0.191,0,0.35,0.157,0.35,0.351c0,0.189-0.158,0.339-0.361,0.339
		C35.708,16.658,35.554,16.509,35.554,16.318L35.554,16.318z"/>
	<path fill="#4B9228" d="M37.063,17.395c-0.23,0-0.418-0.188-0.418-0.418c0-0.23,0.188-0.408,0.418-0.408s0.418,0.178,0.418,0.408
		C37.481,17.206,37.294,17.395,37.063,17.395L37.063,17.395z"/>
	<path fill="#EF7D00" d="M36.577,16.977c0,0.268,0.219,0.485,0.486,0.485s0.486-0.219,0.486-0.485c0-0.268-0.215-0.477-0.486-0.477
		C36.79,16.501,36.577,16.71,36.577,16.977L36.577,16.977z M36.714,16.977c0-0.19,0.152-0.34,0.35-0.34
		c0.195,0,0.35,0.148,0.35,0.34c0,0.192-0.156,0.35-0.35,0.35S36.714,17.17,36.714,16.977L36.714,16.977z"/>
	<path fill="#4B9228" d="M37.868,17.176c-0.23,0-0.418-0.188-0.418-0.418s0.188-0.418,0.418-0.418s0.418,0.188,0.418,0.418
		S38.099,17.176,37.868,17.176L37.868,17.176z"/>
	<path fill="#EF7D00" d="M37.382,16.757c0,0.269,0.219,0.485,0.486,0.485c0.267,0,0.486-0.217,0.486-0.485
		c0-0.268-0.219-0.485-0.486-0.485C37.601,16.271,37.382,16.489,37.382,16.757L37.382,16.757z M37.519,16.757
		c0-0.192,0.156-0.35,0.35-0.35c0.194,0,0.35,0.157,0.35,0.35c0,0.193-0.156,0.351-0.35,0.351
		C37.675,17.107,37.519,16.95,37.519,16.757L37.519,16.757z"/>
	<path fill="#4B9228" d="M38.034,17.979c-0.229,0-0.416-0.188-0.416-0.418c0-0.23,0.188-0.407,0.416-0.407
		c0.23,0,0.418,0.188,0.418,0.418C38.452,17.791,38.265,17.979,38.034,17.979L38.034,17.979z"/>
	<path fill="#EF7D00" d="M37.55,17.562c0,0.268,0.217,0.484,0.484,0.484c0.264,0,0.486-0.217,0.486-0.475
		c0-0.268-0.217-0.486-0.486-0.486C37.763,17.086,37.55,17.295,37.55,17.562L37.55,17.562z M37.685,17.562
		c0-0.19,0.154-0.339,0.35-0.339c0.193,0,0.352,0.155,0.352,0.35c0,0.184-0.16,0.339-0.352,0.339
		C37.843,17.912,37.685,17.754,37.685,17.562L37.685,17.562z"/>
	<path fill="#4B9228" d="M39.017,18.784c-0.23,0-0.418-0.188-0.418-0.418c0-0.229,0.188-0.418,0.418-0.418s0.418,0.188,0.418,0.418
		C39.435,18.596,39.247,18.784,39.017,18.784L39.017,18.784z"/>
	<path fill="#EF7D00" d="M38.53,18.366c0,0.268,0.219,0.485,0.486,0.485s0.486-0.219,0.486-0.485c0-0.269-0.219-0.486-0.486-0.486
		S38.53,18.098,38.53,18.366L38.53,18.366z M38.667,18.366c0-0.193,0.156-0.351,0.35-0.351s0.35,0.156,0.35,0.351
		c0,0.192-0.156,0.35-0.35,0.35S38.667,18.559,38.667,18.366L38.667,18.366z"/>
	<path fill="#4B9228" d="M40.083,19.4c-0.23,0-0.418-0.188-0.418-0.418c0-0.23,0.188-0.418,0.418-0.418
		c0.229,0,0.418,0.188,0.418,0.418C40.501,19.212,40.312,19.4,40.083,19.4L40.083,19.4z"/>
	<path fill="#EF7D00" d="M39.597,18.982c0,0.268,0.219,0.484,0.486,0.484s0.486-0.218,0.486-0.484c0-0.27-0.219-0.486-0.486-0.486
		S39.597,18.714,39.597,18.982L39.597,18.982z M39.733,18.982c0-0.193,0.156-0.351,0.35-0.351s0.35,0.156,0.35,0.351
		c0,0.191-0.156,0.35-0.35,0.35S39.733,19.175,39.733,18.982L39.733,18.982z"/>
	<polygon fill="#EF7D00" points="37.425,10.183 37.442,10.359 37.474,10.403 37.45,10.59 37.175,10.711 37.104,10.652 
		37.331,10.469 37.288,10.335 37.021,10.408 37.075,10.194 	"/>
	<path fill="#131108" d="M35.048,10.007h1.178c0.102,0,0.125,0,0.229,0c0.234,0,0.283,0.103,0.252,0.23
		c-0.068,0.292-0.338,0.688-0.072,0.956c0.203,0.204,0.557,0.189,0.723-0.046c0.082-0.114,0.092-0.265,0.092-0.4
		c0-0.039,0.014-0.344-0.008-0.353l-0.053-0.021l0.01-0.229c0.09,0.002,0.182,0.005,0.271,0.006
		c0.207,0.002,0.348,0.021,0.398,0.093c0.025,0.035,0.008,0.152,0.002,0.188c-0.012,0.079-0.043,0.145-0.074,0.219
		c-0.051,0.126-0.143,0.25-0.152,0.389c-0.021,0.334,0.428,0.344,0.627,0.196c0.172-0.129,0.195-0.44,0.115-0.627
		c-0.027-0.062-0.064-0.118-0.096-0.175c-0.053-0.095-0.113-0.192-0.07-0.306c0.049-0.133,0.174-0.117,0.281-0.117
		c0.123,0,0.246,0,0.369-0.004c0.27-0.006,0.541-0.001,0.811-0.001c0.018,0,0.174,0.017,0.182,0l-0.209,0.366l-0.93,0.125
		l-0.021,0.136h1.129l-0.262,0.355l-0.867,0.073l-0.02,0.094l1.107,0.011l-0.199,0.324l-0.992,0.094l-0.012,0.137L40,11.783
		l-0.137,0.282l-1.17-0.031v0.083l1.244,0.303l-0.303,0.324l-0.283-0.031L38.673,12.4l-0.053,0.063l0.961,0.638l-0.104,0.072H39.1
		l-0.668-0.574h-0.105l0.449,0.585l-0.219,0.011l-0.533-0.449H37.92l-0.021,0.282l0.574,0.366l-0.25,0.345l-0.408-0.387v0.387
		l0.627,1.044l-0.617,0.01l-0.25,0.334l-0.324-0.323l-0.574-0.011l0.627-1.045l0.031-0.417l-0.439,0.438l-0.25-0.407l0.627-0.345
		l-0.041-0.304l-0.105-0.011l-0.459,0.48l-0.346,0.052l0.48-0.606l-0.094-0.063l-0.721,0.627l-0.428-0.031l-0.043-0.094l1.045-0.658
		l-0.053-0.063l-0.771,0.334l-0.324-0.031l-0.23-0.188l1.275-0.365l0.01-0.083l-1.201,0.052l-0.094-0.324l1.191-0.052l0.01-0.125
		l-0.939-0.052l-0.293-0.334l1.148,0.021l-0.031-0.146l-0.877-0.095l-0.271-0.345l1.17,0.011l-0.031-0.104l-0.973-0.156
		L35.048,10.007L35.048,10.007z"/>
	<path fill="#EF7D00" d="M37.636,10.292c0.045,0,0.059,0.029,0.059,0.06c0,0.044-0.014,0.072-0.059,0.072
		c-0.029,0-0.045-0.028-0.045-0.072C37.591,10.322,37.606,10.292,37.636,10.292L37.636,10.292z"/>
	<path fill="#E30613" d="M40.688,24.133c-7.949,0.031-9.35,0.041-17.488,0c0.334,3.302,5.86,6.152,8.796,6.038
		C34.911,30.045,40.052,27.872,40.688,24.133L40.688,24.133z"/>
	<path fill="#EF7D00" d="M31.14,30.098l-0.011-3.302c-0.01-0.365,0.387-0.554,0.877-0.574c0.492,0.011,0.795,0.313,0.773,0.615
		l0.021,3.249l0.438-0.042v-3.343c0.012-0.479-0.5-0.93-1.273-0.95c-0.763,0.021-1.296,0.407-1.317,0.973l-0.001,3.322L31.14,30.098
		L31.14,30.098z"/>
	<path fill="#FFFFFF" d="M31.108,26.702c0.011-0.292,0.418-0.458,0.826-0.489c0.428,0,0.871,0.193,0.871,0.488
		c0.01,1.118-0.012,2.303,0,3.421c-0.555,0.052-1.143,0.027-1.687-0.003L31.108,26.702L31.108,26.702z"/>
	<path fill="#EF7D00" d="M31.944,8.89h-8.891l-0.002,5.043c-0.002,3.263-0.005,6.637,0.002,9.906v0.005
		c0.023,0.802,0.346,1.621,0.961,2.438c0.547,0.726,1.326,1.436,2.252,2.055c1.817,1.214,3.994,1.961,5.68,1.951
		c1.678,0.01,3.85-0.737,5.662-1.951c0.924-0.619,1.701-1.329,2.248-2.055c0.613-0.815,0.936-1.636,0.959-2.438V23.84
		c0.006-2.448,0.006-4.973,0.006-7.414c0-2.44,0-4.965,0.004-7.42V8.89H40.71H31.944L31.944,8.89z M31.944,9.122
		c0,0,8.422,0,8.648,0c-0.004,2.418-0.004,4.902-0.004,7.306c0,2.439,0,4.962-0.006,7.41c-0.043,1.444-1.174,3.015-3.104,4.307
		c-0.861,0.577-1.83,1.061-2.805,1.397c-0.982,0.341-1.926,0.52-2.729,0.515c-0.809,0.005-1.755-0.174-2.741-0.516
		c-0.976-0.337-1.948-0.819-2.811-1.396c-1.935-1.292-3.068-2.861-3.11-4.307c-0.003-1.629-0.005-3.283-0.005-4.938
		c0-1.664,0.001-3.329,0.002-4.965c0,0,0.002-4.591,0.002-4.813C23.511,9.122,31.944,9.122,31.944,9.122L31.944,9.122z"/>
</g>
</svg>
